<?xml version="1.0" standalone="no"?>
<!DOCTYPE svg PUBLIC "-//W3C//DTD SVG 20010904//EN"
 "http://www.w3.org/TR/2001/REC-SVG-20010904/DTD/svg10.dtd">
<svg version="1.0" xmlns="http://www.w3.org/2000/svg"
 width="2000.000000pt" height="2000.000000pt" viewBox="0 0 2000.000000 2000.000000"
 preserveAspectRatio="xMidYMid meet">

<g transform="translate(0.000000,2000.000000) scale(0.100000,-0.100000)"
fill="#000000" stroke="none">
<path d="M4054 17438 c16 -78 27 -108 43 -108 13 0 15 8 10 43 -9 62 -24 97
-43 97 -13 0 -15 -6 -10 -32z"/>
<path d="M5036 16980 c-108 -188 -196 -345 -196 -350 0 -6 8 -10 18 -10 10 0
28 20 46 53 16 28 103 179 194 335 147 254 173 312 144 312 -5 0 -98 -153
-206 -340z"/>
<path d="M14563 17272 c-29 -14 -53 -32 -53 -39 0 -7 10 -33 22 -58 25 -52 38
-55 103 -23 44 22 45 22 122 4 240 -55 555 -230 801 -443 l62 -55 0 -74 0 -74
30 0 c23 0 30 -5 30 -19 0 -16 120 -348 268 -740 l47 -125 95 -36 c52 -20 152
-58 222 -84 l127 -48 152 -235 c147 -227 153 -239 196 -370 80 -248 159 -604
179 -804 l6 -66 -31 -13 c-17 -7 -31 -17 -31 -22 0 -22 52 -108 65 -108 25 0
105 43 105 57 0 19 -47 110 -59 115 -6 1 -18 54 -26 117 -32 224 -99 513 -173
739 l-36 112 297 298 c163 163 297 302 297 309 0 6 -115 73 -256 148 -140 76
-261 147 -268 159 -8 11 -46 109 -86 216 -40 107 -78 200 -84 207 -6 6 -135
57 -286 112 -151 55 -342 125 -424 155 -110 41 -154 52 -167 45 -15 -7 -18 -4
-21 19 -3 26 -6 27 -71 32 l-67 5 -220 215 c-190 185 -220 219 -220 245 0 36
-8 48 -37 64 -30 15 -71 -2 -84 -36 -14 -38 15 -77 63 -81 28 -2 49 -18 114
-83 l79 -81 -93 56 c-175 105 -371 187 -520 218 -58 11 -65 16 -83 50 -10 20
-22 39 -26 41 -5 3 -32 -7 -60 -21z m67 -73 c0 -3 -11 -11 -25 -17 -21 -10
-26 -9 -35 8 -15 28 -12 40 13 49 17 7 25 4 34 -13 7 -11 12 -24 13 -27z m538
-47 c3 -16 -2 -22 -17 -22 -26 0 -36 17 -20 36 16 19 33 13 37 -14z m582 -551
c0 -43 -10 -51 -66 -51 -34 0 -34 0 -34 45 l0 45 50 0 50 0 0 -39z m481 -151
c211 -77 395 -146 407 -152 19 -10 41 -58 102 -218 l78 -205 -136 -140 c-188
-194 -233 -237 -246 -232 -6 2 -102 37 -212 78 l-201 73 -66 181 c-36 99 -104
285 -152 414 -61 166 -83 237 -75 245 7 7 75 -54 235 -214 182 -182 225 -230
225 -252 0 -32 41 -68 77 -68 31 0 73 42 73 73 0 36 -36 77 -68 77 -22 0 -70
43 -251 224 -194 194 -223 227 -212 240 8 9 19 16 26 16 7 0 185 -63 396 -140z
m858 -740 c127 -68 231 -128 231 -133 0 -5 -123 -132 -274 -283 -213 -213
-276 -271 -284 -261 -6 7 -44 65 -85 127 -40 63 -102 159 -137 213 l-63 99
184 184 c101 101 187 183 191 182 4 -2 110 -59 237 -128z m-65 -1772 c8 -33 8
-34 -18 -46 -21 -9 -25 -7 -35 15 -10 21 -9 28 6 39 26 19 40 17 47 -8z"/>
<path d="M16751 15655 c-112 -115 -140 -155 -109 -155 7 0 66 53 131 118 l118
117 111 -58 c74 -40 113 -56 120 -49 6 6 7 15 4 20 -7 11 -231 132 -245 132
-4 0 -63 -56 -130 -125z"/>
<path d="M16571 15469 c-27 -29 -27 -41 0 -37 29 4 48 33 32 49 -8 8 -16 5
-32 -12z"/>
<path d="M4110 17239 c0 -18 100 -404 132 -506 11 -39 26 -50 34 -28 6 13 -52
246 -127 519 -11 39 -39 50 -39 15z"/>
<path d="M6825 17066 c-22 -7 -52 -19 -67 -27 -47 -25 -118 -99 -146 -152
l-27 -52 -3 -2146 -2 -2146 -531 -298 -531 -298 -297 42 c-163 23 -358 50
-434 59 l-138 17 -3 75 c-1 51 -8 88 -22 115 -20 38 -20 49 -11 228 l10 189
61 -6 c267 -28 420 -32 476 -13 48 17 62 48 55 124 -6 69 -36 167 -89 292
l-35 84 44 52 c50 58 58 98 28 132 -10 11 -59 52 -109 92 -79 63 -92 77 -98
109 -7 49 -68 168 -140 275 l-57 86 17 32 c22 43 29 137 15 182 -28 85 -160
157 -287 157 -58 0 -65 -3 -130 -50 -69 -51 -98 -62 -246 -95 -147 -32 -324
-139 -460 -276 -107 -109 -156 -200 -165 -306 -10 -123 34 -204 231 -423 46
-52 102 -119 122 -148 l38 -53 4 -125 c4 -119 4 -124 -16 -124 -22 0 -24 -7
-43 -125 l-12 -80 -74 -78 c-207 -218 -360 -559 -417 -932 -15 -102 -53 -598
-82 -1070 -8 -143 -18 -474 -21 -735 -6 -490 2 -725 33 -965 29 -222 100 -451
143 -462 15 -4 22 -17 26 -52 25 -177 70 -345 131 -488 37 -85 37 -86 25 -152
-7 -36 -68 -352 -137 -701 l-125 -635 -111 -348 c-60 -191 -126 -387 -145
-435 -192 -473 -362 -1144 -474 -1867 -28 -188 -29 -190 -9 -205 20 -15 20
-15 -1 -45 -61 -90 -130 -256 -153 -370 l-13 -60 -666 -3 c-433 -1 -667 -6
-667 -12 0 -7 233 -10 668 -10 l668 0 22 -30 c37 -50 64 -61 259 -102 104 -21
307 -64 453 -95 l265 -55 252 -5 c139 -3 268 -2 288 1 49 9 103 59 111 102 8
43 -16 112 -51 144 -14 13 -25 26 -25 29 0 3 74 6 165 6 l165 0 0 -95 c1 -55
6 -104 13 -117 19 -34 60 -61 108 -72 58 -14 819 -14 984 -1 138 12 334 46
485 85 80 20 100 30 128 59 30 34 38 59 33 114 -1 16 4 22 19 22 42 1 331 1
353 0 19 -1 19 -2 -8 -14 -78 -34 -118 -112 -113 -221 l3 -70 1340 -3 c737 -1
1350 0 1363 3 20 5 22 11 22 78 -1 110 -36 173 -122 214 -35 17 -12 18 628 17
l664 -2 76 -81 c84 -89 91 -93 269 -153 108 -37 131 -41 223 -42 102 -1 104 0
128 27 45 52 30 128 -43 208 -19 21 -34 39 -32 39 8 0 3175 1 3190 0 11 0 19
-12 23 -35 4 -21 22 -50 43 -71 126 -126 475 -185 1095 -184 336 0 562 14 596
36 20 13 34 13 125 0 56 -9 158 -20 227 -26 152 -13 626 -13 808 -1 117 8 137
12 157 31 34 32 38 63 21 159 -8 47 -13 88 -10 93 3 4 405 8 895 8 586 0 889
3 889 10 0 7 -306 10 -899 10 l-899 0 -22 55 c-12 30 -35 74 -50 99 l-29 44
-5 439 c-11 913 -62 1619 -156 2163 -11 63 -58 549 -104 1080 -67 775 -82 979
-75 1035 12 104 11 432 -3 579 l-11 129 25 18 c24 17 25 22 20 98 l-4 79 174
204 c416 486 600 718 624 788 20 53 17 120 -11 254 -53 264 -209 681 -462
1241 -195 431 -264 545 -413 689 -88 85 -209 172 -302 217 -51 25 -51 24 -129
253 -27 77 -58 105 -152 137 -43 14 -53 23 -58 46 -12 52 -9 70 17 99 104 117
318 423 373 533 51 101 65 159 66 261 0 115 -21 187 -81 277 -36 53 -42 71
-46 126 -7 112 -66 172 -213 216 -96 29 -247 38 -525 30 -298 -9 -314 -13
-413 -112 -40 -40 -94 -84 -122 -98 -56 -29 -61 -49 -19 -86 30 -28 108 -31
192 -9 28 8 52 11 52 6 0 -4 -25 -58 -56 -120 -82 -165 -85 -177 -84 -315 l2
-120 -48 -85 c-62 -112 -94 -185 -94 -215 0 -35 32 -64 80 -71 31 -5 39 -10
36 -23 -10 -33 -26 -174 -26 -226 0 -116 27 -135 195 -135 l115 0 0 -25 c0
-13 -28 -70 -61 -125 -56 -92 -64 -100 -98 -105 -104 -17 -289 -60 -391 -91
l-115 -36 -112 -116 c-62 -65 -161 -169 -220 -234 -60 -64 -111 -117 -115
-117 -5 -1 -9 1145 -10 2547 l-3 2547 -22 47 c-12 26 -49 77 -82 115 -33 37
-81 92 -107 121 -28 31 -70 63 -103 80 l-56 27 -3505 2 c-2801 1 -3513 -1
-3545 -11z m7068 -46 c76 -29 130 -79 169 -158 l33 -67 2 -2690 2 -2690 -75
-80 c-42 -44 -103 -108 -136 -143 l-60 -62 -688 190 c-379 104 -696 190 -706
190 -9 0 -22 -7 -28 -16 -11 -14 -16 -14 -49 -1 -30 13 -41 27 -67 83 -16 37
-30 68 -30 70 0 2 192 4 428 4 389 0 429 2 449 18 34 26 39 71 13 105 l-21 27
-473 0 -473 0 -26 39 c-15 22 -42 52 -62 68 l-35 28 0 193 0 192 854 0 855 0
20 26 c12 15 21 34 21 44 0 10 -9 29 -21 44 l-20 26 -855 0 c-672 0 -854 3
-854 12 0 7 -69 81 -152 165 l-153 153 -402 0 -403 0 -2 -162 -3 -163 -118 -5
c-129 -5 -147 -14 -147 -69 1 -56 20 -66 148 -71 l117 -5 0 -255 0 -255 -110
-3 c-96 -2 -112 -5 -132 -24 -13 -12 -23 -32 -23 -44 0 -66 37 -84 170 -84
l100 0 0 -160 0 -160 -112 0 c-101 0 -114 -2 -135 -22 -41 -38 -26 -98 28
-117 21 -7 148 -11 366 -11 244 0 338 -3 353 -12 15 -10 32 -10 76 0 32 6 59
10 62 8 2 -2 -1 -13 -7 -24 -17 -32 -13 -50 14 -68 24 -16 29 -14 143 40 l117
56 195 0 c107 0 201 -4 209 -9 11 -7 11 -15 3 -39 -8 -25 -7 -33 6 -45 9 -8
109 -61 222 -118 l205 -104 -984 -3 -985 -2 -23 -22 c-28 -27 -30 -67 -3 -96
l21 -22 1157 0 1157 0 137 -50 c262 -96 505 -150 668 -150 66 0 139 11 233 35
l27 7 -2 -1459 -3 -1458 -33 -67 c-39 -79 -93 -129 -169 -158 -53 -20 -71 -20
-2580 -18 l-2527 3 107 94 c59 52 106 98 105 102 -2 4 -52 65 -113 135 l-109
127 34 25 c82 60 169 161 209 244 54 109 71 182 71 298 0 143 -33 252 -111
370 -49 74 -151 167 -224 207 -37 20 -54 34 -45 36 8 3 78 15 155 27 182 28
288 53 321 75 49 32 100 175 158 447 l33 153 496 3 497 2 0 1360 0 1360 -1627
2 -1627 3 84 45 c46 25 113 65 149 89 l65 43 891 161 890 160 2308 4 2307 3
-2 1358 -3 1357 -3450 0 -3450 0 -2 -1367 c-2 -1161 -5 -1375 -17 -1422 -8
-31 -21 -92 -27 -136 l-12 -79 -64 -52 c-40 -32 -69 -49 -79 -45 -8 3 -28 -1
-44 -9 -16 -8 -34 -15 -40 -15 -7 0 -10 637 -10 2088 0 2269 -3 2150 54 2240
37 60 106 111 176 133 14 4 1594 8 3512 8 3468 1 3488 1 3541 -19z m-204
-1364 c-5 -5 -242 -99 -1069 -421 -179 -70 -363 -142 -410 -160 -115 -45
-1010 -394 -1455 -567 -198 -77 -368 -144 -377 -149 -17 -9 -72 11 -678 248
-91 35 -232 90 -315 122 -371 145 -1138 444 -1540 601 -242 94 -521 203 -620
242 -99 39 -187 74 -195 79 -8 5 1462 9 3324 9 1837 0 3337 -2 3335 -4z
m-6433 -127 c170 -66 388 -151 484 -189 96 -38 402 -157 680 -265 628 -245
732 -285 1000 -390 118 -46 330 -129 470 -183 140 -55 292 -114 338 -132 46
-18 82 -33 80 -35 -2 -2 -208 -83 -458 -180 -250 -98 -534 -209 -629 -246 -96
-38 -176 -67 -178 -65 -2 2 -26 131 -54 287 -27 156 -52 290 -54 297 -2 6 -12
12 -22 12 -35 0 -1947 -340 -1954 -348 -5 -6 135 -835 156 -919 4 -19 1 -23
-19 -23 -42 0 -93 -28 -130 -72 l-36 -42 0 1307 c0 719 4 1307 8 1307 5 0 148
-54 318 -121z m6524 -1194 c0 -723 -2 -1315 -5 -1315 -2 0 -84 31 -182 69
-246 95 -940 365 -1043 406 -47 19 -269 106 -495 193 -225 88 -543 212 -705
275 -729 285 -848 331 -898 350 -64 24 -72 19 130 97 84 32 281 109 438 170
157 62 539 211 850 332 775 302 822 320 1350 526 256 99 481 188 500 196 19 8
41 15 48 16 9 0 12 -269 12 -1315z m-4862 18 c6 -32 34 -191 62 -353 28 -162
57 -329 65 -370 8 -41 30 -167 50 -280 20 -113 42 -238 49 -278 7 -40 9 -75 5
-78 -5 -3 -212 -41 -461 -85 -1182 -208 -1417 -249 -1435 -249 -17 0 -21 12
-32 83 -7 45 -14 91 -17 102 -4 17 0 20 34 20 45 1 92 28 92 53 0 10 -23 40
-51 67 -28 28 -60 70 -71 95 -10 25 -28 52 -39 61 -17 13 -32 82 -100 469 -55
310 -77 455 -69 460 6 4 70 17 143 29 156 26 488 85 602 106 107 19 421 75
680 120 116 20 266 47 335 60 69 13 130 24 136 24 6 1 16 -25 22 -56z m1517
-64 c274 -106 742 -289 870 -339 334 -131 2090 -816 2225 -867 80 -31 149 -60
155 -64 5 -5 -975 -8 -2245 -7 l-2254 3 -68 380 c-37 209 -67 389 -67 400 -1
16 18 27 97 56 109 41 382 148 867 338 182 71 332 130 335 130 3 1 41 -13 85
-30z m-5656 -496 c68 -101 131 -229 138 -279 5 -36 14 -46 109 -119 57 -44
106 -88 109 -97 4 -12 -11 -38 -46 -80 -50 -61 -98 -92 -248 -162 -36 -16
-141 -13 -176 6 -48 26 -124 108 -151 165 -25 49 -25 57 -15 114 13 76 -1 114
-63 164 -23 19 -51 42 -63 52 -20 16 -21 22 -13 68 5 28 17 78 26 111 14 54
21 64 55 83 49 28 145 49 225 50 l61 1 52 -77z m10629 11 c82 -53 141 -103
157 -135 13 -25 12 -34 -10 -93 -34 -89 -32 -124 6 -172 66 -83 126 -233 117
-294 -4 -24 1 -35 20 -51 14 -10 30 -19 36 -19 7 0 21 28 31 63 19 65 68 127
99 127 39 0 86 -89 86 -163 0 -85 -76 -187 -139 -187 -17 0 -21 -6 -21 -32 0
-41 -47 -111 -106 -158 -73 -58 -153 -98 -284 -141 -103 -34 -140 -41 -210
-43 l-85 -1 -3 70 c-2 38 4 113 13 167 9 53 14 102 10 108 -3 5 -22 10 -41 10
-44 0 -74 15 -74 39 0 20 75 177 113 238 24 37 26 50 29 184 l3 144 92 188
c50 103 94 187 98 187 3 0 32 -16 63 -36z m-11129 -512 c65 -66 121 -160 121
-202 0 -11 -7 -35 -16 -52 -12 -22 -19 -27 -27 -19 -6 6 -33 11 -59 11 -57 0
-111 25 -168 76 -42 38 -100 130 -100 158 0 30 49 65 101 72 27 4 52 11 55 15
11 18 29 7 93 -59z m2892 -242 c12 -27 41 -67 64 -89 32 -30 39 -41 28 -45
-34 -13 -63 -5 -96 29 -19 19 -39 35 -44 35 -22 0 -35 -32 -39 -100 -3 -40
-10 -83 -15 -97 -14 -37 -11 -53 9 -53 26 0 43 43 50 118 4 55 7 62 19 49 8
-8 25 -72 37 -143 l22 -129 42 0 c42 0 42 0 19 -17 -12 -10 -65 -40 -117 -68
-60 -31 -121 -74 -164 -114 -39 -36 -73 -63 -77 -60 -4 2 -42 46 -85 96 l-77
92 44 36 c86 69 95 82 103 140 10 82 46 220 68 265 11 22 33 54 49 70 24 26
36 30 84 32 l55 2 21 -49z m-2935 -97 c38 -16 43 -23 69 -92 42 -115 101 -226
128 -244 14 -9 52 -24 84 -34 l60 -17 -5 -101 c-2 -55 -6 -102 -8 -104 -1 -2
-20 14 -41 34 -59 59 -129 112 -204 155 -73 43 -244 104 -321 115 -27 4 -48 8
-48 9 -1 0 -5 57 -9 126 -5 69 -12 133 -16 143 -6 15 -1 17 42 17 37 0 58 -6
83 -25 47 -34 83 -33 110 5 25 35 23 35 76 13z m11597 -242 c9 -27 33 -72 53
-101 20 -29 38 -69 41 -89 l5 -36 -73 3 c-118 6 -260 -18 -442 -75 -15 -5 -18
-1 -15 21 2 23 11 31 54 46 146 51 299 165 333 248 7 18 16 32 20 32 3 0 14
-22 24 -49z m-4101 -118 l3 -158 143 -3 142 -3 0 -224 c0 -124 -4 -225 -9
-225 -5 0 -15 8 -22 17 -24 28 -91 73 -110 73 -10 0 -26 -11 -35 -25 -15 -24
-15 -28 1 -71 9 -25 43 -73 75 -107 66 -72 80 -95 80 -135 0 -50 -20 -89 -58
-114 -44 -29 -194 -93 -238 -103 -17 -3 -91 1 -165 10 -148 19 -203 14 -236
-17 -30 -28 -29 -53 2 -82 l25 -23 -25 -13 c-14 -7 -30 -28 -37 -47 l-12 -34
-136 3 -135 3 -3 718 -2 717 375 0 374 0 3 -157z m153 17 l110 -110 -113 0
-112 0 0 110 c0 61 1 110 3 110 1 0 52 -49 112 -110z m4137 -189 c31 -12 67
-30 79 -40 31 -25 115 -265 91 -258 -9 3 -55 16 -102 30 -156 46 -270 60 -475
61 -104 0 -218 -3 -253 -7 l-62 -8 52 85 52 84 91 27 c143 44 219 55 350 51
94 -2 132 -8 177 -25z m-5682 -1311 l0 -1320 -476 0 -476 0 4 38 c14 114 50
339 58 353 4 8 14 50 21 93 9 62 9 80 0 86 -20 11 14 172 52 249 28 55 37 66
71 77 53 17 85 42 121 93 58 82 57 89 -120 861 -86 377 -159 687 -161 689 -4
4 -123 -21 -357 -76 -107 -25 -108 -25 -102 -52 3 -14 64 -278 134 -586 91
-395 125 -562 117 -567 -144 -84 -160 -187 -60 -386 l47 -94 -12 -54 c-10 -42
-17 -54 -31 -54 -15 0 -24 -15 -40 -69 -12 -37 -20 -79 -18 -93 2 -13 -35
-133 -82 -266 l-85 -242 -545 1 -545 0 -35 30 -35 31 55 -9 c163 -24 252 6
303 102 26 50 35 205 18 315 -11 68 -10 74 9 95 13 14 20 34 19 56 0 19 3 57
7 86 10 79 -2 138 -39 179 -28 32 -35 36 -69 31 -43 -6 -61 13 -51 51 3 15 1
22 -8 22 -8 0 -31 33 -51 74 l-36 74 25 7 c50 12 112 -5 149 -43 26 -27 35
-31 39 -19 10 24 -13 93 -41 127 -21 25 -33 30 -68 30 l-42 0 4 39 c7 76 -74
177 -186 229 -49 23 -69 27 -147 26 -155 -1 -320 -73 -529 -229 l-100 -74 -15
47 c-19 54 -63 133 -85 152 -14 11 -16 76 -16 554 l0 541 62 57 63 57 1643 1
1642 0 0 -1320z m-6343 1296 c7 -1 16 -6 20 -10 4 -4 -10 -5 -32 -1 -22 4 -44
12 -50 18 -7 6 0 7 20 2 17 -4 35 -8 42 -9z m77 -35 c4 -5 -3 -7 -14 -4 -23 6
-26 13 -6 13 8 0 17 -4 20 -9z m56 -5 c0 -9 -30 -14 -35 -6 -4 6 3 10 14 10
12 0 21 -2 21 -4z m57 -25 c17 -7 34 -19 37 -27 7 -19 -11 -18 -21 1 -8 13
-34 22 -73 24 -13 1 -13 2 0 11 8 5 17 8 20 7 3 -2 19 -9 37 -16z m83 -51 c8
-5 11 -10 5 -10 -5 0 -17 5 -25 10 -8 5 -10 10 -5 10 6 0 17 -5 25 -10z m5303
-683 c119 -520 157 -703 152 -729 -25 -131 -159 -210 -280 -164 -42 17 -115
78 -115 97 0 5 15 9 34 9 38 0 66 21 66 51 0 13 -20 29 -70 54 -54 27 -71 41
-77 63 -53 210 -277 1218 -271 1220 10 4 379 89 393 91 6 0 81 -311 168 -692z
m-5188 612 c54 -47 174 -173 169 -178 -3 -3 -33 25 -66 62 -33 38 -77 79 -97
93 -19 13 -31 24 -26 24 6 0 -9 12 -32 26 -24 14 -43 27 -43 30 0 7 69 -35 95
-57z m2513 -471 c-3 -424 -5 -483 -18 -479 -83 23 -110 24 -171 9 -35 -9 -72
-19 -81 -23 -17 -7 -18 13 -18 336 l0 344 91 90 c50 49 111 115 136 147 25 32
50 58 55 58 4 0 7 -217 6 -482z m8997 407 c375 -61 651 -231 851 -525 46 -69
118 -212 133 -265 24 -89 27 -70 -236 -1570 -25 -143 -47 -280 -50 -305 -2
-25 12 -234 31 -465 36 -424 39 -460 37 -482 -1 -16 -145 -93 -256 -139 -123
-49 -314 -100 -446 -119 -201 -28 -489 -15 -676 30 -209 51 -492 172 -691 296
-79 49 -82 52 -77 83 2 17 27 220 55 451 28 231 60 492 70 581 18 145 19 186
11 415 -6 140 -13 358 -17 484 l-6 230 118 96 c66 53 165 140 221 193 128 122
155 171 157 283 1 66 -2 78 -16 81 -15 3 -18 -4 -18 -50 0 -30 -7 -79 -16
-109 -14 -47 -29 -67 -124 -160 -274 -271 -630 -510 -879 -590 -270 -87 -622
-18 -1199 235 -145 64 -572 272 -572 279 0 1 31 81 70 177 55 138 73 175 87
174 10 -1 158 -40 328 -87 906 -251 1038 -287 1050 -287 11 0 40 29 210 210
38 42 138 148 220 235 83 88 218 231 299 318 82 87 157 162 168 168 10 5 28 7
39 4 13 -4 25 0 37 14 29 35 370 109 602 131 124 11 371 4 485 -15z m-3979
-147 c53 -41 168 -143 189 -167 34 -41 82 -131 136 -252 l51 -117 44 -12 c24
-7 44 -18 44 -24 0 -7 -16 -52 -36 -102 -20 -49 -40 -99 -45 -112 l-9 -23 -75
42 -76 41 -157 -36 c-125 -29 -178 -47 -260 -87 -57 -28 -106 -48 -110 -45
-12 13 14 41 80 85 41 28 64 49 61 58 -7 19 -17 17 -139 -22 -115 -36 -144
-42 -144 -25 0 15 83 65 141 86 35 13 49 23 49 37 0 18 -6 19 -82 12 -46 -3
-120 -11 -166 -17 -45 -5 -90 -7 -99 -4 -27 11 11 43 68 57 63 16 61 35 -6 57
-29 10 -50 23 -50 31 0 28 55 35 165 23 210 -23 267 -15 425 66 75 38 100 65
116 122 19 73 6 113 -61 185 -71 77 -120 165 -91 165 4 0 21 -10 37 -22z
m-7281 -88 c3 -11 10 -20 14 -20 13 0 31 -49 21 -55 -6 -4 -10 -1 -10 5 0 6
-11 28 -25 50 -14 22 -21 40 -16 40 5 0 13 -9 16 -20z m1945 -350 l0 -330 -69
-67 c-97 -97 -115 -146 -115 -318 1 -107 7 -157 33 -285 18 -85 33 -185 34
-221 2 -57 -2 -71 -26 -106 -40 -57 -34 -87 16 -91 24 -2 53 4 77 17 21 11 41
17 44 14 3 -4 6 -128 6 -277 0 -221 -3 -275 -15 -292 -21 -31 -79 -231 -109
-374 -50 -247 -76 -518 -76 -797 l0 -163 -110 0 -109 0 -6 33 c-3 17 -19 135
-35 262 -28 213 -30 252 -30 552 l0 323 -40 0 c-44 0 -46 2 -54 69 -3 24 -8
47 -11 50 -6 5 -95 -6 -580 -69 -126 -16 -240 -30 -252 -30 -21 0 -23 4 -23
64 0 99 -28 430 -56 656 -54 444 -156 1011 -187 1035 -7 6 -13 24 -14 40 0 17
1 22 4 13 2 -10 8 -18 13 -18 109 0 780 73 836 91 45 14 395 225 539 324 66
46 161 115 210 153 50 39 93 71 98 72 4 0 7 -148 7 -330z m-1874 207 c-2 -7
-5 -4 -5 6 -1 10 -5 15 -11 12 -11 -7 -14 8 -3 19 9 9 26 -22 19 -37z m24 -38
c0 -5 -4 -9 -10 -9 -5 0 -10 7 -10 16 0 8 5 12 10 9 6 -3 10 -10 10 -16z
m-1039 -38 c-6 -10 -8 -21 -6 -25 3 -3 0 -2 -5 2 -12 10 -3 42 11 42 6 0 6 -8
0 -19z m1078 -81 c0 -23 -1 -23 -9 -5 -5 11 -9 31 -9 45 0 23 1 23 9 5 5 -11
9 -31 9 -45z m-1099 11 c-5 -11 -7 -28 -4 -38 5 -15 4 -16 -5 -2 -11 17 -4 59
11 59 5 0 4 -8 -2 -19z m1113 -46 c-3 -9 -8 -14 -10 -11 -3 3 -2 9 2 15 9 16
15 13 8 -4z m18 -68 c-10 -9 -11 -8 -5 6 3 10 9 15 12 12 3 -3 0 -11 -7 -18z
m-1151 -33 c0 -8 -5 -12 -10 -9 -6 4 -8 11 -5 16 9 14 15 11 15 -7z m1157 -6
c-3 -8 -6 -5 -6 6 -1 11 2 17 5 13 3 -3 4 -12 1 -19z m25 -65 c-5 -7 -8 5 -9
30 -1 38 0 39 8 13 4 -16 5 -35 1 -43z m-1193 12 c0 -5 -4 -3 -9 5 -5 8 -9 22
-9 30 0 16 17 -16 18 -35z m1005 27 c-1 -7 -2 -35 -2 -64 -2 -63 -7 -60 -15
10 -4 32 -2 50 3 47 6 -4 10 -2 10 4 0 5 -5 12 -10 14 -6 3 -5 4 2 3 7 -2 13
-8 12 -14z m197 -65 c-10 -9 -11 -8 -5 6 3 10 9 15 12 12 3 -3 0 -11 -7 -18z
m-1216 -39 c-3 -18 -7 -43 -8 -55 0 -12 -5 -19 -10 -16 -6 4 -7 -14 -4 -43 5
-40 5 -44 -4 -19 -10 32 -5 93 13 138 14 37 20 34 13 -5z m1236 -41 c-8 -8
-11 -8 -11 0 0 6 -3 20 -7 30 -7 17 -6 17 11 0 14 -14 16 -21 7 -30z m-233
-37 c0 -9 -3 -7 -8 5 -5 11 -8 29 -8 40 0 16 2 15 8 -5 4 -14 8 -32 8 -40z
m12427 -275 c306 -694 457 -1187 403 -1315 -19 -44 -111 -166 -292 -385 -177
-216 -468 -556 -472 -553 -6 7 -54 560 -54 631 0 28 15 62 59 135 117 195 221
373 221 379 0 3 -36 79 -80 168 l-80 162 75 429 c41 236 80 471 87 522 15 109
1 127 133 -173z m-12458 168 c-3 -10 -5 -4 -5 12 0 17 2 24 5 18 2 -7 2 -21 0
-30z m-1000 -30 c-3 -10 -5 -4 -5 12 0 17 2 24 5 18 2 -7 2 -21 0 -30z m1003
-3 c0 -5 -5 -10 -11 -10 -5 0 -7 5 -4 10 3 6 8 10 11 10 2 0 4 -4 4 -10z
m-1000 -37 c0 -5 -5 -15 -10 -23 -8 -12 -10 -11 -10 8 0 12 5 22 10 22 6 0 10
-3 10 -7z m985 -30 c-2 -21 -4 -48 -4 -61 -1 -13 -5 -20 -11 -17 -6 4 -9 14
-6 23 2 10 7 34 11 55 3 20 8 37 10 37 2 0 2 -17 0 -37z m4665 -65 c0 -7 -11
-14 -26 -14 -23 -2 -24 -1 -7 12 23 17 33 17 33 2z m-1325 -122 c53 -103 57
-116 47 -144 -11 -33 2 -57 18 -32 14 23 21 -7 14 -64 -6 -48 -10 -56 -32 -64
-22 -7 -30 -3 -55 25 -25 28 -36 33 -74 33 -78 0 -123 -42 -123 -114 0 -30 -4
-34 -41 -46 -37 -13 -57 -12 -178 9 -75 13 -141 25 -147 28 -8 3 -6 22 8 66
11 34 21 94 22 134 1 71 2 73 43 113 l42 40 36 -37 c21 -22 41 -56 48 -80 7
-29 17 -43 28 -43 31 0 40 95 14 157 -8 20 -14 37 -13 38 2 2 41 12 86 24 46
11 107 31 135 45 29 13 55 25 58 25 4 1 33 -50 64 -113z m-3362 69 c-7 -21
-12 -19 -10 4 0 11 5 18 9 15 4 -3 5 -11 1 -19z m4612 -5 c-8 -26 12 -26 33 0
17 21 17 21 104 -22 48 -24 86 -47 84 -53 -3 -10 -48 -12 -96 -4 -38 6 -36
-23 4 -81 20 -29 36 -61 36 -71 0 -11 7 -19 15 -19 8 0 15 7 15 15 0 14 3 14
23 1 12 -8 41 -20 65 -27 23 -7 42 -14 42 -17 0 -2 -11 -30 -25 -61 -13 -31
-31 -91 -39 -134 -7 -43 -16 -80 -18 -82 -2 -2 -47 9 -99 26 l-95 30 14 67 14
68 -40 80 c-69 138 -89 245 -52 289 17 21 23 19 15 -5z m-5599 -96 c-2 -41 -6
-78 -9 -81 -3 -3 -4 24 -3 59 5 92 5 98 11 98 3 0 4 -34 1 -76z m3390 18 c-23
-65 -37 -157 -39 -253 -2 -92 -7 -94 -32 -12 -19 63 -19 164 1 211 14 34 73
106 81 98 2 -1 -3 -22 -11 -44z m-2433 -107 c-6 -35 -7 -37 -15 -16 -5 15 -4
28 2 36 6 7 8 21 4 31 -5 16 -4 17 5 3 6 -9 7 -33 4 -54z m10057 -12 c1 -43 7
-251 15 -463 l13 -385 -33 -280 c-19 -154 -53 -435 -76 -624 l-42 -344 23 -17
c13 -10 20 -22 16 -28 -14 -23 -23 -390 -15 -615 15 -423 62 -878 146 -1417
33 -205 37 -254 35 -380 -3 -164 6 -243 48 -415 21 -85 51 -297 105 -731 l75
-612 0 -644 0 -644 -117 -47 c-245 -96 -250 -97 -488 -86 -60 2 -88 -1 -110
-13 -37 -20 -78 -63 -99 -105 l-17 -33 -565 0 -565 0 3 38 c3 32 7 37 31 40
15 2 27 5 27 7 0 6 170 1040 176 1067 l6 28 -277 2 -277 3 -18 48 -18 48 28
82 c47 139 138 359 198 478 l57 114 80 23 c138 39 301 63 478 69 179 6 231 23
70 23 -164 0 -374 -26 -538 -65 -31 -8 66 64 382 283 89 62 165 117 168 122
19 30 -46 -10 -310 -195 -161 -113 -296 -205 -300 -205 -13 0 187 351 301 526
80 125 85 134 68 141 -18 6 -235 -337 -344 -545 -18 -34 -35 -61 -37 -58 -2 2
1 55 8 117 19 193 -2 393 -56 515 -21 48 -45 77 -45 56 0 -5 11 -35 25 -65 46
-100 59 -185 57 -377 -1 -96 -7 -204 -14 -240 l-13 -64 -32 85 c-18 47 -56
124 -85 172 -63 104 -172 237 -194 237 -10 0 1 -18 31 -52 109 -121 226 -323
256 -440 l11 -48 -80 -177 c-44 -98 -103 -241 -132 -318 -29 -77 -53 -141 -55
-143 -1 -1 -10 19 -20 45 -47 128 -230 475 -281 534 -33 38 -2 305 56 478 17
51 29 95 27 97 -27 28 -117 -334 -117 -472 0 -52 -10 -38 -59 84 -47 115 -106
320 -116 405 -4 31 -11 57 -16 57 -13 0 -11 -21 12 -133 17 -84 71 -267 105
-352 4 -11 -24 16 -62 60 -39 44 -106 113 -149 153 -78 73 -218 172 -242 172
-27 0 -11 -21 45 -56 87 -56 210 -162 293 -255 79 -88 144 -169 136 -169 -2 0
-29 11 -58 24 -110 50 -298 94 -471 111 -124 12 -71 -11 65 -28 144 -18 257
-44 356 -84 119 -48 160 -83 95 -83 -82 0 -393 -93 -402 -120 -4 -10 0 -11 14
-5 93 42 374 115 440 115 30 0 215 -331 298 -536 37 -90 37 -92 23 -140 l-14
-49 -267 -3 -266 -2 0 -23 c0 -12 25 -173 55 -357 30 -184 69 -422 87 -527
l31 -193 29 0 c26 0 28 -3 28 -40 l0 -40 -708 0 -708 0 -96 98 c-99 100 -133
138 -183 207 -31 43 -146 188 -214 270 -42 51 -48 76 -35 144 5 25 15 36 44
47 36 15 37 17 44 76 3 34 6 79 6 100 0 35 -2 39 -21 33 -20 -7 -20 -5 -12 97
15 196 8 1160 -10 1458 -41 650 -100 1121 -154 1238 -70 150 -513 220 -1393
223 l-335 1 345 67 c190 37 350 70 356 74 8 4 5 34 -7 99 -10 51 -19 101 -19
110 0 17 127 18 2433 20 l2432 3 55 26 c69 32 131 92 167 161 l28 53 3 1580 3
1580 97 53 c54 30 124 73 157 97 33 24 66 44 73 44 8 1 12 -21 12 -76z
m-10071 -53 c0 -10 -3 -8 -9 5 -12 27 -12 43 0 25 5 -8 9 -22 9 -30z m-17 -35
c3 -14 1 -25 -3 -25 -5 0 -9 11 -9 25 0 14 2 25 4 25 2 0 6 -11 8 -25z m3637
0 c29 -37 44 -118 31 -166 -9 -33 -14 -38 -28 -30 -31 17 -74 68 -63 75 16 10
13 72 -4 86 -19 16 -29 -7 -23 -50 5 -35 -7 -41 -16 -7 -12 47 -6 86 16 101
33 23 64 20 87 -9z m-4577 -160 c2 -82 1 -136 -3 -120 -4 17 -7 91 -7 165 0
173 6 148 10 -45z m925 93 c-3 -7 -5 -2 -5 12 0 14 2 19 5 13 2 -7 2 -19 0
-25z m3416 -19 c25 -34 33 -106 17 -153 -33 -102 -151 -37 -167 92 -5 45 -3
50 23 71 39 31 100 26 127 -10z m-3420 -30 c-9 -9 -12 -7 -10 9 1 14 5 18 11
12 7 -7 6 -14 -1 -21z m3593 -61 c46 -40 84 -79 84 -86 0 -7 -22 -26 -50 -43
-56 -34 -64 -51 -22 -47 27 3 27 2 40 -82 13 -87 10 -167 -10 -232 -42 -139
-228 -153 -444 -33 -110 62 -155 104 -213 203 -47 82 -56 92 -81 92 -64 0
-126 43 -161 112 -39 76 -13 149 48 134 15 -4 106 -21 201 -38 180 -33 172
-33 258 -1 6 2 14 -7 18 -20 9 -37 46 -78 84 -94 72 -30 124 24 127 131 2 51
12 75 33 76 2 0 42 -33 88 -72z m-3615 9 c-10 -9 -11 -8 -5 6 3 10 9 15 12 12
3 -3 0 -11 -7 -18z m9 -23 c0 -3 -7 -12 -15 -20 -16 -17 -18 -14 -9 10 6 15
24 23 24 10z m-28 -79 c3 -14 1 -25 -3 -25 -5 0 -9 11 -9 25 0 14 2 25 4 25 2
0 6 -11 8 -25z m4873 -15 l120 -39 -4 -43 c-1 -24 -5 -46 -7 -50 -2 -3 -65 14
-139 39 -126 42 -135 47 -129 66 15 47 24 67 31 67 5 0 62 -18 128 -40z
m-2345 -33 c0 -22 64 -86 128 -126 75 -49 103 -82 132 -160 l20 -51 -23 -33
c-12 -18 -37 -66 -56 -105 l-35 -72 -103 0 -103 0 0 264 c0 145 3 278 7 296 6
31 7 32 20 15 7 -11 13 -23 13 -28z m-2533 -19 c-3 -8 -6 -5 -6 6 -1 11 2 17
5 13 3 -3 4 -12 1 -19z m-860 -99 c-1 -59 -3 -75 -9 -58 -8 20 -2 139 7 139 1
0 2 -37 2 -81z m3205 8 c-3 -48 0 -66 11 -76 25 -20 50 -9 72 32 11 20 23 37
28 37 4 0 6 -104 5 -231 l-3 -231 -70 -18 c-39 -10 -99 -30 -134 -44 -36 -14
-68 -26 -73 -26 -4 0 -8 102 -8 226 l0 227 25 -27 c13 -14 29 -26 35 -26 24 0
50 45 76 129 15 50 30 91 34 91 3 0 4 -28 2 -63z m-2376 1 c-13 -18 -16 -19
-16 -5 0 9 5 17 10 17 6 0 10 8 11 18 0 10 3 12 6 5 2 -7 -3 -23 -11 -35z
m4879 6 c60 -20 113 -39 117 -43 6 -6 -55 -393 -87 -546 -51 -249 -107 -426
-144 -459 -36 -32 -203 -66 -556 -111 -110 -14 -216 -28 -236 -31 l-37 -5 -17
53 c-39 118 -130 306 -200 411 l-19 29 200 -6 c109 -3 285 -7 389 -8 l190 -3
137 375 c75 206 137 376 137 378 2 5 22 0 126 -34z m-4888 -76 c-3 -8 -6 -5
-6 6 -1 11 2 17 5 13 3 -3 4 -12 1 -19z m3013 -65 c14 -33 49 -83 83 -120 33
-35 54 -63 48 -63 -14 0 -194 51 -200 56 -6 5 32 184 38 184 3 0 17 -26 31
-57z m-3032 6 c-13 -37 -17 -34 -11 8 3 18 9 30 14 28 4 -3 3 -19 -3 -36z
m12433 -80 c33 -67 59 -129 56 -138 -9 -31 -239 -406 -234 -381 3 14 29 163
58 333 29 169 54 307 56 307 1 0 30 -55 64 -121z m-13233 23 c-4 -2 -6 -8 -2
-13 10 -17 13 -49 3 -49 -5 0 -10 10 -10 23 -1 12 -3 42 -4 67 l-3 45 13 -35
c7 -19 8 -37 3 -38z m792 -17 c0 -5 -5 -3 -10 5 -5 8 -10 20 -10 25 0 6 5 3
10 -5 5 -8 10 -19 10 -25z m-17 -30 c-7 -21 -13 -19 -13 6 0 11 4 18 10 14 5
-3 7 -12 3 -20z m-5 -50 c-3 -3 -9 2 -12 12 -6 14 -5 15 5 6 7 -7 10 -15 7
-18z m3096 -51 c49 -14 136 -36 193 -50 110 -26 183 -56 183 -76 0 -7 -12 -50
-27 -96 -20 -60 -34 -87 -48 -92 -30 -11 -139 5 -235 35 -123 39 -331 126
-337 141 -3 7 16 53 42 103 l48 89 46 -14 c25 -8 86 -26 135 -40z m-3104 13
c0 -5 -4 -5 -10 -2 -5 3 -10 14 -10 23 0 15 2 15 10 2 5 -8 10 -19 10 -23z
m10 -31 c0 -3 -4 -8 -10 -11 -5 -3 -10 -1 -10 4 0 6 5 11 10 11 6 0 10 -2 10
-4z m10 -38 c0 -18 -2 -20 -9 -8 -6 8 -7 18 -5 22 9 14 14 9 14 -14z m-763
-43 c-2 -25 -8 -49 -12 -53 -4 -4 -5 11 -2 33 4 22 7 46 7 53 0 6 2 12 5 12 3
0 4 -20 2 -45z m5323 -57 c0 -7 -14 -52 -31 -101 l-32 -88 -126 6 c-69 2 -246
7 -393 10 l-267 6 -107 39 c-59 22 -113 40 -120 40 -17 0 -17 -3 2 53 l16 47
529 0 c412 0 529 -3 529 -12z m-4495 -25 c3 -16 20 -49 35 -75 17 -27 25 -50
20 -53 -6 -3 -10 1 -10 9 0 8 -6 21 -13 28 -7 7 -16 20 -19 28 -3 8 -13 32
-22 53 -9 20 -12 37 -7 37 5 0 12 -12 16 -27z m2804 -34 c223 -99 438 -157
522 -140 25 5 38 15 49 38 8 18 23 33 32 33 9 0 62 -16 118 -36 99 -36 102
-38 140 -94 128 -188 250 -517 280 -751 11 -92 13 -408 4 -536 l-7 -82 -96 35
c-52 18 -98 30 -102 26 -4 -4 -30 -72 -57 -152 -27 -80 -91 -265 -142 -412
l-93 -268 -33 0 c-49 0 -176 93 -169 124 5 17 -7 31 -63 74 -38 28 -77 52 -86
52 -10 0 -85 55 -168 123 -353 286 -428 348 -428 355 0 4 8 77 17 162 19 179
24 744 7 795 -6 17 -18 32 -28 33 -16 4 -17 -2 -9 -65 15 -122 8 -544 -11
-756 -17 -182 -18 -199 -3 -210 153 -115 585 -475 582 -485 -5 -13 -133 -221
-145 -235 -9 -11 -329 143 -494 237 -198 113 -359 235 -391 295 -30 59 -46
645 -25 917 22 278 68 536 128 718 36 108 38 111 65 108 28 -4 37 14 16 35
-19 19 172 87 301 106 14 3 59 5 100 6 70 1 83 -2 189 -50z m-3612 16 c6 -14
8 -25 4 -25 -4 0 -13 11 -19 25 -6 14 -8 25 -4 25 4 0 12 -11 19 -25z m49
-101 c5 -27 4 -28 -9 -9 -8 10 -12 25 -10 33 7 17 13 10 19 -24z m826 -36 c-7
-7 -12 -8 -12 -2 0 14 12 26 19 19 2 -3 -1 -11 -7 -17z m-772 -64 c0 -2 -4 -4
-10 -4 -5 0 -10 7 -10 15 0 8 -4 15 -10 15 -5 0 -7 7 -3 15 4 12 9 10 19 -11
8 -14 14 -28 14 -30z m820 -21 c0 -13 -19 2 -28 22 -20 44 -13 61 8 20 11 -22
20 -41 20 -42z m1468 -265 c24 -183 66 -503 94 -711 27 -208 48 -381 45 -383
-2 -3 -141 -23 -308 -44 -167 -22 -315 -41 -327 -44 -20 -3 -27 4 -43 42 -20
45 -20 45 1 67 26 28 25 71 -4 128 l-23 47 21 5 c11 2 96 14 189 26 92 12 167
26 167 31 0 5 -80 102 -177 215 -98 113 -194 225 -213 249 -19 23 -40 45 -46
47 -6 3 -46 -66 -89 -155 -61 -122 -82 -156 -90 -145 -34 46 -349 407 -355
407 -4 0 -12 -12 -19 -27 -12 -27 -16 -21 -117 186 -58 118 -103 215 -102 216
2 2 93 14 203 29 671 88 901 118 985 130 52 8 111 14 130 15 l35 1 43 -332z
m-2268 263 c0 -5 3 -18 6 -28 5 -16 4 -16 -10 1 -18 23 -20 36 -6 36 6 0 10
-4 10 -9z m59 -120 c0 -14 -1 -14 -6 -1 -3 8 -14 23 -24 33 -11 10 -19 22 -19
28 0 5 11 -2 25 -17 14 -15 25 -34 24 -43z m891 58 c-64 -11 -100 -11 -100 1
0 6 30 9 73 9 68 -1 70 -2 27 -10z m1369 -151 c0 -90 -2 -158 -4 -153 -2 6
-11 71 -20 145 -9 74 -19 143 -21 153 -4 13 1 17 20 17 l26 0 -1 -162z m-2247
60 c-7 -7 -12 -8 -12 -2 0 14 12 26 19 19 2 -3 -1 -11 -7 -17z m42 -63 c9 -14
13 -25 8 -25 -5 0 -14 11 -20 25 -6 14 -10 25 -8 25 2 0 11 -11 20 -25z m41
-74 c1 -11 -2 -18 -7 -15 -5 4 -7 12 -4 20 3 8 1 14 -4 14 -6 0 -10 5 -10 12
0 20 23 -9 25 -31z m49 -70 c-2 -2 17 -33 42 -67 25 -35 41 -64 37 -64 -12 1
-103 137 -103 155 0 10 -5 13 -12 9 -7 -5 -8 -3 -3 6 6 10 12 7 26 -11 10 -13
16 -26 13 -28z m4752 -120 c137 -67 227 -155 292 -286 44 -88 62 -169 62 -276
0 -110 -16 -176 -66 -279 -72 -146 -247 -285 -399 -318 -76 -16 -125 -22 -125
-13 0 4 16 54 35 111 19 57 35 109 35 115 0 6 -26 20 -57 32 l-58 20 3 269 c4
287 -4 390 -42 543 -14 56 -18 91 -12 91 6 1 27 3 46 6 64 9 165 21 186 23 11
0 56 -16 100 -38z m-3668 -246 c80 -93 152 -178 160 -188 14 -16 13 -23 -13
-77 -21 -43 -33 -59 -44 -56 -9 3 -29 8 -46 12 -40 9 -50 18 -95 85 -35 50
-37 58 -24 71 14 14 8 30 -55 156 -67 134 -80 170 -64 185 10 11 27 -7 181
-188z m-887 38 c135 -174 285 -330 381 -397 l22 -16 -37 -75 c-20 -41 -37 -82
-37 -90 0 -19 6 -19 158 1 68 9 125 14 126 12 19 -21 144 -264 138 -269 -9 -8
-671 -94 -677 -88 -2 3 -31 214 -65 469 -33 256 -63 477 -66 493 -3 15 -3 27
-1 27 3 0 29 -30 58 -67z m1448 -178 c99 -115 177 -213 173 -216 -4 -4 -83
-17 -175 -29 l-168 -21 -42 20 c-23 11 -76 28 -117 37 -41 9 -76 18 -78 19 -2
2 22 56 53 121 32 66 77 161 102 213 38 79 47 91 58 80 8 -8 95 -108 194 -224z
m-624 -121 c22 -31 43 -60 46 -65 3 -5 70 -25 150 -43 208 -49 230 -61 270
-138 25 -49 24 -66 -6 -80 -31 -14 -31 -31 -1 -99 41 -94 44 -159 7 -159 -13
0 -15 8 -13 45 4 40 2 45 -17 45 -16 0 -21 -6 -21 -28 0 -35 -16 -52 -51 -52
-14 0 -48 -12 -75 -27 -40 -21 -63 -26 -124 -27 -60 -1 -75 -4 -75 -16 0 -8
16 -20 35 -27 l35 -12 -29 0 c-47 -1 -101 66 -205 259 -57 103 -116 198 -148
234 l-52 60 31 25 c17 15 67 56 112 93 45 37 83 68 86 68 3 0 23 -26 45 -56z
m-885 -249 l0 -285 44 0 45 0 6 -47 c12 -86 -1 -83 218 -54 78 11 214 29 302
41 88 11 174 23 191 26 28 5 33 2 57 -39 15 -25 48 -64 74 -87 l48 -42 -1
-371 c-1 -407 -12 -626 -50 -963 -13 -122 -24 -257 -24 -300 0 -206 -40 -543
-86 -719 -25 -97 -26 -107 -19 -290 4 -104 8 -203 10 -220 2 -16 6 -100 9
-185 4 -85 9 -182 11 -215 2 -33 7 -123 10 -200 3 -77 12 -264 20 -415 8 -151
17 -354 21 -452 l7 -176 -42 -22 c-94 -48 -170 -64 -296 -65 -66 0 -137 4
-157 8 l-36 8 -51 207 c-85 351 -159 755 -195 1067 -31 264 -36 374 -35 733 0
202 -2 390 -5 417 -5 50 -10 124 -22 365 -6 119 -55 406 -252 1475 l-39 210
-69 70 c-116 118 -215 275 -285 455 -44 110 -45 104 54 172 65 44 150 84 250
117 71 24 226 59 265 60 l22 1 0 -285z m518 99 c13 -9 32 -14 43 -11 23 6 90
-70 67 -77 -24 -8 -190 -27 -194 -23 -5 5 49 126 56 127 3 0 16 -7 28 -16z
m-439 -326 c1 -22 -4 -28 -19 -28 -22 0 -23 9 -22 125 3 187 3 188 22 55 10
-69 19 -137 19 -152z m4188 81 l151 -52 -13 -41 c-21 -66 -254 -738 -258 -742
-1 -2 -27 9 -57 25 -39 19 -86 31 -158 41 -56 7 -102 16 -102 19 0 13 275 801
280 801 3 0 73 -23 157 -51z m-2283 -59 c-1 -14 -2 -31 -3 -37 -1 -10 -65 -13
-283 -13 -155 0 -278 3 -275 7 10 10 466 71 517 69 41 -1 45 -3 44 -26z
m-2514 -87 c51 -90 118 -180 188 -252 l65 -66 18 -95 c27 -143 257 -1399 264
-1447 18 -115 -172 -629 -305 -826 -25 -37 -95 -252 -326 -990 -161 -518 -298
-949 -302 -957 -12 -21 -121 -38 -212 -33 -92 4 -168 23 -254 62 -81 37 -80
17 -27 332 113 673 257 1233 433 1679 27 69 100 285 162 480 109 339 117 371
186 725 40 204 103 522 140 708 l68 339 -33 71 c-46 100 -116 327 -102 327 3
0 20 -26 37 -57z m2082 -415 l3 -423 28 -55 c36 -70 98 -134 162 -168 50 -27
52 -27 315 -32 l265 -5 3 -422 2 -421 -129 -4 c-127 -3 -130 -3 -168 -34 -66
-53 -75 -85 -71 -254 3 -148 3 -148 33 -186 63 -77 44 -74 559 -74 l460 0 86
-49 c47 -28 137 -81 200 -119 l115 -69 3 -677 2 -678 -66 -66 c-36 -37 -79
-86 -96 -110 l-29 -42 95 -128 95 -127 1 -222 c0 -191 -2 -223 -15 -223 -8 0
-173 -18 -366 -40 -345 -39 -359 -40 -701 -40 l-350 0 -48 43 c-55 49 -110 70
-244 92 -50 8 -152 24 -226 36 -200 31 -312 63 -430 122 l-105 52 -6 140 c-3
77 -26 543 -50 1035 l-43 895 27 111 c41 165 66 355 78 584 5 113 16 266 25
340 45 420 70 942 60 1259 l-6 193 28 -7 c69 -17 102 -17 130 1 18 13 40 18
69 15 36 -2 47 2 73 27 16 17 30 38 30 46 0 9 7 16 15 16 23 0 55 37 55 65 0
24 2 25 64 25 l65 0 3 -422z m-242 327 c0 -26 -44 -46 -86 -39 -32 5 -43 2
-58 -15 -22 -24 -51 -26 -86 -6 l-25 14 35 1 c19 0 61 12 93 28 69 32 127 40
127 17z m3498 -165 c39 -46 72 -86 72 -90 0 -5 -486 -429 -645 -562 l-30 -26
3 42 c2 24 -5 67 -17 101 l-20 60 46 142 45 141 189 162 c103 89 194 169 201
177 14 17 16 15 156 -147z m-238 116 c0 -3 -46 -44 -102 -93 -57 -48 -116
-100 -133 -115 -54 -50 -54 -46 -6 89 l29 78 48 8 c44 8 155 32 162 36 1 0 2
-1 2 -3z m-1062 -304 l43 -37 -76 -127 c-42 -71 -79 -128 -83 -128 -17 0 -107
39 -107 46 0 13 167 284 174 284 3 0 25 -17 49 -38z m-684 -38 c81 -46 261
-134 356 -175 39 -17 50 -27 50 -44 0 -19 13 -27 92 -55 l92 -33 14 21 c8 12
20 22 28 22 7 0 42 -28 76 -63 51 -51 73 -66 117 -77 50 -14 55 -18 66 -55 7
-22 26 -67 43 -100 17 -33 29 -61 28 -62 -1 -1 -47 -7 -102 -13 -165 -18 -315
-48 -480 -95 -206 -60 -307 -83 -434 -100 -137 -19 -160 -19 -160 0 0 9 34
159 75 333 l75 317 -13 113 c-7 61 -11 112 -9 112 2 0 41 -21 86 -46z m826
-114 l65 -47 125 -11 c69 -6 150 -19 180 -28 92 -27 150 -107 150 -207 0 -50
-16 -55 -24 -8 -7 45 -45 95 -90 118 -30 16 -31 16 -8 26 27 12 31 43 5 32
-10 -4 -37 -11 -60 -15 -23 -4 -61 -20 -85 -35 -24 -16 -58 -31 -76 -34 -41
-7 -46 -25 -8 -29 19 -2 47 8 86 32 68 42 104 47 107 14 13 -182 15 -230 9
-253 -6 -23 -10 -26 -35 -20 -17 3 -32 2 -36 -4 -3 -6 -13 -11 -21 -11 -10 0
-14 13 -14 50 0 56 -15 93 -52 126 -54 50 -99 33 -60 -23 37 -54 49 -120 21
-111 -6 2 -29 39 -52 83 l-43 80 -63 20 c-50 16 -73 31 -115 75 -28 30 -60 60
-71 66 -17 9 -15 15 30 91 27 45 54 79 60 76 5 -3 39 -27 75 -53z m1374 -173
c16 -86 28 -159 25 -161 -5 -5 -1040 -206 -1056 -206 -4 1 7 7 25 15 18 8 49
28 69 44 20 17 40 28 45 25 5 -3 7 -1 6 4 -2 5 40 47 93 93 54 46 141 123 196
171 l99 86 224 45 c124 24 229 44 234 43 5 -1 23 -73 40 -159z m-940 -113 c-6
-25 -8 -26 -15 -9 -4 11 -8 31 -8 45 -1 22 0 23 15 9 11 -11 13 -24 8 -45z
m22 -137 c-31 -27 -31 -28 -34 -6 -2 12 4 39 14 59 l18 37 17 -31 c16 -31 16
-31 -15 -59z m-1506 -109 c0 -18 -9 -70 -20 -116 -11 -45 -19 -92 -18 -105 0
-12 -11 -60 -25 -107 -37 -119 -50 -210 -45 -299 4 -68 15 -104 56 -183 2 -5
-39 -8 -92 -8 l-96 0 0 425 0 425 120 0 120 0 0 -32z m1368 -15 c-10 -2 -28
-2 -40 0 -13 2 -5 4 17 4 22 1 32 -1 23 -4z m926 -4 c-5 -9 1 -10 20 -5 15 4
26 2 26 -4 0 -11 1 -11 -55 -15 -22 -1 -31 0 -21 2 14 4 16 7 6 13 -7 5 -21 3
-31 -3 -13 -8 -24 -8 -43 2 -13 8 -31 11 -38 8 -8 -2 -41 -1 -73 3 -49 6 -35
8 78 9 102 1 136 -2 131 -10z m146 2 c0 -6 19 -12 43 -14 23 -2 11 -3 -28 -1
-41 2 -76 -1 -85 -7 -12 -9 -12 -10 4 -5 24 8 92 -4 76 -14 -7 -4 6 -10 29
-14 23 -3 41 -10 41 -14 0 -4 -29 -1 -64 8 -43 10 -59 17 -48 22 15 6 15 7 -1
7 -10 1 -27 -4 -37 -9 -23 -13 -35 3 -15 20 8 7 12 16 9 21 -3 5 13 9 35 9 23
0 41 -4 41 -9z m-1195 -11 c3 -6 -4 -10 -17 -10 -18 0 -20 2 -8 10 19 12 18
12 25 0z m279 -5 c-4 -10 -20 -15 -48 -16 -22 0 -50 -4 -61 -9 -14 -6 -6 -7
25 -4 33 4 41 3 30 -5 -8 -6 -35 -11 -60 -12 -28 0 -38 -3 -27 -7 9 -4 -29 -8
-85 -8 l-103 -1 50 13 c62 17 68 17 59 2 -5 -8 -2 -9 10 -5 10 4 25 7 34 8 9
0 4 5 -13 10 -16 5 -52 7 -80 5 -27 -3 -41 -3 -30 0 11 3 24 9 28 14 5 4 29 3
55 -2 31 -6 63 -5 96 3 26 6 59 12 72 12 14 0 27 3 30 8 9 15 24 10 18 -6z
m49 -14 c-4 -4 -11 -10 -15 -15 -5 -5 -8 3 -8 19 0 24 2 26 15 15 9 -7 12 -16
8 -19z m96 12 c25 -2 49 -7 55 -12 6 -5 19 -7 29 -6 9 2 17 -1 17 -6 0 -5 -24
-9 -53 -9 -54 0 -117 22 -117 41 0 6 6 7 13 2 6 -4 32 -9 56 -10z m1044 0 c-7
-2 -19 -2 -25 0 -7 3 -2 5 12 5 14 0 19 -2 13 -5z m-1556 -10 c-20 -2 -52 -2
-70 0 -17 2 0 4 38 4 39 0 53 -2 32 -4z m683 -4 c0 -7 13 -9 38 -5 26 4 31 3
17 -3 -15 -7 -9 -9 25 -8 25 1 63 -2 85 -6 28 -5 34 -4 20 2 -24 11 -10 13 24
4 23 -6 24 -7 5 -15 -12 -5 -4 -6 22 -2 30 4 44 1 54 -10 8 -11 9 -16 1 -16
-6 0 -11 5 -11 11 0 7 -11 8 -29 4 -16 -3 -49 -1 -73 6 -23 7 -74 12 -111 13
-46 1 -71 6 -76 15 -5 8 -18 12 -30 8 -12 -3 -21 -1 -21 4 0 5 14 9 30 9 17 0
30 -5 30 -11z m1125 -2 c36 0 41 -1 20 -5 -29 -6 -29 -6 10 -12 28 -5 15 -7
-45 -7 -59 1 -76 3 -55 8 19 5 0 7 -50 5 -44 -2 -62 -1 -40 2 l40 6 -50 7
c-31 5 -18 5 35 2 47 -3 108 -6 135 -6z m-1860 -8 c17 -1 -1 -7 -40 -14 l-70
-12 59 -2 c33 0 57 -3 55 -5 -10 -9 -100 -12 -106 -4 -3 6 -18 8 -34 6 -16 -3
-29 -1 -29 4 0 5 -10 6 -22 3 -19 -5 -20 -4 -8 5 12 9 10 10 -10 5 -14 -4 -38
-8 -53 -10 -15 -2 -40 -6 -55 -9 -19 -5 -23 -4 -11 3 29 18 116 27 179 18 19
-2 26 -2 15 1 -18 5 -18 6 5 13 14 4 41 6 60 4 19 -3 49 -5 65 -6z m1415 1 c0
-5 -7 -10 -15 -10 -8 0 -15 5 -15 10 0 6 7 10 15 10 8 0 15 -4 15 -10z m-880
-12 c0 -5 10 -8 22 -8 12 0 19 -2 17 -5 -8 -7 -109 7 -109 16 0 4 16 7 35 6
19 -1 35 -5 35 -9z m1088 5 c-10 -2 -26 -2 -35 0 -10 3 -2 5 17 5 19 0 27 -2
18 -5z m367 -3 l20 -9 -20 -1 c-17 -2 -16 -3 5 -10 20 -6 21 -8 5 -8 -11 0
-29 3 -40 8 l-20 9 20 1 c17 2 16 3 -5 10 -20 6 -21 8 -5 8 11 0 29 -3 40 -8z
m-1930 -10 c-3 -5 -14 -10 -23 -9 -14 0 -13 2 3 9 27 11 27 11 20 0z m365 1
c0 -11 -51 -21 -65 -13 -5 3 1 9 15 13 36 10 50 10 50 0z m296 -2 c4 -8 28
-10 68 -6 34 3 70 1 81 -3 11 -5 -29 -8 -95 -7 -63 1 -107 3 -97 5 9 2 15 8
12 13 -4 5 1 9 9 9 8 0 18 -5 22 -11z m-86 -9 c-34 -11 -60 -11 -35 0 11 5 29
8 40 8 16 0 15 -2 -5 -8z m1047 3 c-57 -3 -78 -7 -74 -16 3 -9 -14 -13 -65
-13 -60 0 -67 2 -52 13 13 9 20 10 25 2 8 -14 59 -4 59 11 0 6 37 9 93 8 l92
-2 -78 -3z m438 -14 c6 -6 -1 -9 -22 -7 -17 1 -30 5 -27 9 2 4 -6 10 -18 12
-13 2 -5 2 17 0 22 -2 44 -8 50 -14z m-1778 5 c-3 -3 -12 -4 -19 -1 -8 3 -5 6
6 6 11 1 17 -2 13 -5z m753 -2 c0 -5 -7 -9 -15 -9 -8 0 -15 4 -15 9 0 4 7 8
15 8 8 0 15 -4 15 -8z m713 1 c-7 -2 -21 -2 -30 0 -10 3 -4 5 12 5 17 0 24 -2
18 -5z m80 0 c-7 -2 -19 -2 -25 0 -7 3 -2 5 12 5 14 0 19 -2 13 -5z m-2268
-22 c-3 -6 -15 -11 -25 -11 -10 0 -20 -6 -22 -12 -3 -9 -10 -7 -23 6 -19 18
-19 18 4 11 18 -5 22 -4 16 5 -5 9 -4 11 3 6 7 -4 20 -3 29 3 20 11 28 7 18
-8z m1644 -6 c20 -2 61 -10 91 -18 l55 -13 -77 1 c-43 0 -78 -3 -78 -7 0 -5
-19 -7 -42 -7 l-43 2 35 7 35 7 -32 2 c-34 1 -47 20 -15 22 16 1 16 2 0 6 -10
2 -18 9 -18 13 0 6 12 5 27 -1 15 -5 43 -12 62 -14z m198 19 c-3 -3 -12 -4
-19 -1 -8 3 -5 6 6 6 11 1 17 -2 13 -5z m272 -19 c3 -15 0 -17 -10 -9 -8 6
-27 16 -44 22 -30 11 -30 11 10 9 31 -2 41 -6 44 -22z m472 4 c54 -17 79 -31
73 -41 -4 -5 2 -9 12 -8 41 5 46 1 40 -26 -5 -18 -2 -32 10 -45 10 -11 12 -19
6 -19 -7 0 -12 -9 -12 -20 0 -11 -4 -20 -10 -20 -5 0 -10 -4 -10 -10 0 -5 7
-7 15 -4 11 5 13 2 9 -10 -3 -9 -10 -16 -15 -16 -9 0 -11 5 -14 50 -1 14 -6
34 -10 44 -6 14 -5 17 3 12 7 -4 12 -14 12 -22 0 -8 4 -12 10 -9 13 8 -24 81
-45 89 -22 8 -41 -4 -24 -15 10 -6 3 -9 -19 -9 -18 0 -41 8 -50 17 -16 15 -15
16 15 10 22 -4 35 -2 44 9 10 13 5 14 -42 9 -52 -4 -53 -4 -19 7 l35 12 -32 4
c-18 2 -33 7 -33 13 0 12 9 11 51 -2z m-2551 -9 c0 -5 -5 -10 -11 -10 -5 0 -7
5 -4 10 3 6 8 10 11 10 2 0 4 -4 4 -10z m2032 -15 c15 -4 29 -13 32 -21 3 -8
13 -14 23 -14 12 0 14 -3 7 -10 -12 -12 -64 3 -64 18 0 5 -19 12 -42 16 -24 4
-54 9 -66 11 -39 6 -38 15 1 15 20 0 39 -4 42 -10 11 -18 35 -11 29 8 -4 11
-3 13 3 5 4 -6 20 -14 35 -18z m6368 -370 c55 -209 105 -418 110 -465 20 -157
50 -267 110 -395 36 -78 37 -85 54 -285 9 -113 52 -623 96 -1134 44 -512 80
-931 80 -932 0 -1 -38 -18 -84 -37 -132 -55 -272 -97 -325 -97 -65 0 -111 10
-111 24 0 6 -18 38 -39 71 l-39 60 -5 1085 c-5 994 -14 1393 -36 1600 -7 60 0
153 30 455 39 381 49 459 55 440 2 -5 48 -181 104 -390z m-8535 376 c-3 -5 3
-12 12 -14 14 -4 13 -5 -4 -6 -12 0 -25 -5 -28 -11 -3 -5 -12 -10 -18 -10 -7
0 -6 4 3 10 12 8 11 10 -7 10 -13 0 -23 5 -23 11 0 6 8 8 18 5 9 -3 24 -1 32
4 19 12 23 12 15 1z m115 -27 c0 -14 -3 -14 -15 -4 -8 7 -15 14 -15 16 0 2 7
4 15 4 8 0 15 -7 15 -16z m-180 -4 c11 -8 5 -9 -22 -7 -21 2 -41 7 -45 10 -10
11 50 8 67 -3z m135 0 c-3 -5 -12 -7 -20 -3 -21 7 -19 13 6 13 11 0 18 -4 14
-10z m1814 -6 c9 -8 -45 -2 -64 6 -14 7 -8 8 20 3 22 -3 42 -7 44 -9z m-96 -1
c-7 -2 -19 -2 -25 0 -7 3 -2 5 12 5 14 0 19 -2 13 -5z m208 -7 c14 -7 38 -16
53 -20 65 -16 189 -86 154 -86 -9 0 -21 7 -28 15 -7 8 -16 12 -21 9 -5 -3 -9
0 -9 5 0 10 -62 41 -82 41 -20 0 4 -19 32 -25 34 -7 41 -25 9 -25 -12 0 -17 4
-14 11 5 7 -6 8 -32 5 -31 -5 -34 -4 -13 4 20 7 14 9 -25 5 -42 -4 -46 -3 -25
6 14 6 30 12 37 13 7 1 16 6 20 10 4 5 -12 6 -36 3 -32 -4 -41 -3 -32 6 8 8 5
14 -11 24 -31 17 -10 16 23 -1z m276 -2 c-3 -3 -12 -4 -19 -1 -8 3 -5 6 6 6
11 1 17 -2 13 -5z m-2472 -14 c-19 -8 -19 -9 2 -9 12 -1 23 4 25 10 2 7 12 7
31 -2 32 -15 34 -25 7 -32 -12 -3 -18 -1 -14 5 5 7 -12 8 -52 4 -42 -5 -55 -4
-44 3 12 9 9 11 -15 12 -30 2 -30 2 5 9 19 4 44 8 55 8 l20 1 -20 -9z m3032
-22 c-3 -8 -6 -5 -6 6 -1 11 2 17 5 13 3 -3 4 -12 1 -19z m-3112 2 l20 -9 -20
0 c-11 0 -29 4 -40 9 l-20 9 20 0 c11 0 29 -4 40 -9z m2559 -5 c11 -8 15 -15
10 -15 -6 0 -19 7 -30 15 -10 8 -14 14 -9 14 6 0 19 -6 29 -14z m-2576 -12
c54 -9 45 -20 -14 -16 -31 2 -53 0 -50 -5 2 -4 -9 -9 -27 -10 -36 -3 -29 8 16
26 25 9 26 11 7 8 -14 -2 -36 -8 -50 -12 -17 -4 -22 -3 -15 4 14 14 46 21 75
15 14 -2 40 -7 58 -10z m-148 -8 c0 -11 -11 -15 -47 -13 l-48 1 43 4 c23 2 40
8 37 14 -4 5 -1 9 4 9 6 0 11 -7 11 -15z m-130 -6 c13 -9 13 -10 -1 -6 -12 4
-15 -1 -12 -21 4 -22 2 -24 -7 -12 -9 13 -11 12 -9 -5 1 -11 -1 -31 -4 -45 -4
-14 -8 -37 -10 -52 -6 -54 -14 -36 -13 31 1 39 5 64 9 58 5 -7 6 0 2 16 -4 19
-2 26 5 22 5 -3 10 1 10 9 0 19 9 20 30 5z m383 4 c-7 -2 -19 -2 -25 0 -7 3
-2 5 12 5 14 0 19 -2 13 -5z m247 -3 c0 -5 -14 -10 -31 -10 -17 0 -28 4 -24
10 3 6 17 10 31 10 13 0 24 -4 24 -10z m2315 -42 l1 -28 -28 27 c-15 15 -28
27 -28 28 0 0 12 1 28 0 23 0 27 -4 27 -27z m-199 1 c3 -6 19 -9 35 -7 30 5
40 -8 14 -18 -18 -7 -75 14 -75 27 0 13 17 11 26 -2z m-16 -28 c0 -5 8 -12 18
-14 9 -3 5 -4 -10 -4 -25 1 -42 27 -18 27 6 0 10 -4 10 -9z m114 -7 c5 -14 4
-15 -8 -5 -11 9 -15 9 -19 -1 -2 -7 -8 -9 -13 -5 -5 4 -2 12 6 17 21 14 27 12
34 -6z m149 -34 c3 -11 12 -20 21 -20 9 0 16 -6 16 -14 0 -34 -58 11 -60 47 0
16 18 6 23 -13z m32 10 c-3 -5 -10 -10 -16 -10 -5 0 -9 5 -9 10 0 6 7 10 16
10 8 0 12 -4 9 -10z m424 -31 c7 -23 10 -60 7 -83 -4 -26 -3 -34 2 -22 8 19 9
18 15 -5 4 -13 6 -33 6 -44 -1 -13 -4 -10 -9 10 l-8 30 -2 -30 -2 -30 -8 30
c-7 27 -8 25 -10 -20 -2 -31 -5 -40 -7 -25 -3 14 0 55 7 91 9 56 9 72 -4 103
-8 20 -11 36 -7 36 4 0 13 -18 20 -41z m-560 -9 c5 -17 6 -28 1 -25 -10 6 -24
-30 -16 -43 2 -4 1 -32 -4 -62 -7 -47 -8 -43 -4 30 2 47 5 95 5 108 1 29 5 28
18 -8z m-2970 -24 c-9 -8 -10 -7 -5 7 3 10 7 24 7 30 1 7 3 4 6 -7 3 -10 -1
-23 -8 -30z m58 7 c-3 -10 -5 -4 -5 12 0 17 2 24 5 18 2 -7 2 -21 0 -30z
m3053 -57 c0 -26 -6 -18 -14 19 -5 22 -4 26 4 15 5 -8 10 -24 10 -34z m317
-73 c-2 -21 -4 -4 -4 37 0 41 2 58 4 38 2 -21 2 -55 0 -75z m40 0 c-2 -21 -4
-4 -4 37 0 41 2 58 4 38 2 -21 2 -55 0 -75z m-482 -7 c0 -52 -3 -89 -8 -83 -8
12 -5 189 3 181 2 -3 4 -47 5 -98z m-2996 -23 c1 -23 -2 -48 -5 -57 -11 -28
-24 -6 -23 37 l2 42 8 -35 c6 -26 7 -17 4 35 -2 46 -1 61 5 45 4 -14 8 -44 9
-67z m3145 42 c-4 -8 -7 -15 -9 -15 -2 0 -5 7 -9 15 -3 9 0 15 9 15 9 0 12 -6
9 -15z m13 -27 c-3 -8 -6 -5 -6 6 -1 11 2 17 5 13 3 -3 4 -12 1 -19z m-14 -18
c3 -11 1 -18 -4 -14 -5 3 -9 12 -9 20 0 20 7 17 13 -6z m434 -42 c-2 -13 -4
-5 -4 17 -1 22 1 32 4 23 2 -10 2 -28 0 -40z m-337 7 c0 -8 -4 -15 -10 -15 -5
0 -10 7 -10 15 0 8 5 15 10 15 6 0 10 -7 10 -15z m316 -34 c-2 -66 -16 -78
-16 -14 0 41 5 63 15 63 1 0 1 -22 1 -49z m-360 14 c-5 -19 -3 -23 9 -19 10 4
15 0 15 -15 0 -12 -6 -21 -15 -21 -8 0 -15 6 -15 14 0 10 -7 12 -22 8 -14 -3
-19 -2 -14 7 4 6 12 8 18 5 8 -5 9 -1 5 10 -4 10 -3 15 3 11 6 -3 10 1 10 9 0
9 3 16 6 16 3 0 3 -11 0 -25z m331 -17 c-3 -8 -6 -5 -6 6 -1 11 2 17 5 13 3
-3 4 -12 1 -19z m55 -50 c-2 -27 -8 -48 -12 -48 -12 0 -7 83 5 92 12 9 12 10
7 -44z m-605 -38 l-14 -45 1 41 c1 23 4 40 9 37 4 -2 8 6 8 19 1 13 3 16 5 8
3 -8 -2 -35 -9 -60z m550 33 c-3 -10 -5 -4 -5 12 0 17 2 24 5 18 2 -7 2 -21 0
-30z m-380 5 c-3 -8 -6 -5 -6 6 -1 11 2 17 5 13 3 -3 4 -12 1 -19z m-3147 2
c0 -5 -5 -10 -11 -10 -5 0 -7 5 -4 10 3 6 8 10 11 10 2 0 4 -4 4 -10z m3177
-65 c0 -36 -3 -65 -8 -65 -10 0 -12 113 -2 123 3 4 7 7 8 7 1 0 2 -29 2 -65z
m20 -42 c-2 -16 -4 -3 -4 27 0 30 2 43 4 28 2 -16 2 -40 0 -55z m-1997 52 c0
-12 -15 -15 -75 -15 -41 0 -75 4 -75 8 0 4 32 8 70 7 39 -1 70 3 70 7 0 4 2 8
5 8 3 0 5 -7 5 -15z m-1166 -8 c-2 -7 7 -24 21 -37 14 -13 25 -28 25 -33 0 -5
-13 4 -30 20 -29 27 -40 63 -20 63 5 0 7 -6 4 -13z m40 -2 c-7 -16 -24 -21
-24 -6 0 8 7 13 27 20 1 1 0 -6 -3 -14z m1926 5 c0 -6 -31 -10 -74 -10 -41 0
-78 5 -81 10 -4 6 23 10 74 10 47 0 81 -4 81 -10z m1147 -22 c-3 -7 -5 -2 -5
12 0 14 2 19 5 13 2 -7 2 -19 0 -25z m-3030 -54 c-3 -3 -12 -4 -19 -1 -8 3 -5
6 6 6 11 1 17 -2 13 -5z m178 -5 l-30 -7 30 -2 30 -2 -30 -7 c-26 -6 -20 -8
34 -15 35 -4 66 -5 69 -2 3 3 -4 6 -16 6 -11 0 -24 5 -28 11 -5 8 3 10 27 5
19 -4 49 -9 67 -13 101 -17 -73 -24 -213 -7 -22 2 -50 5 -62 7 -11 1 -19 6
-16 10 2 4 -8 5 -24 2 l-28 -6 30 14 c18 8 62 14 110 13 51 0 69 -3 50 -7z
m285 -2 c70 4 453 3 457 -1 2 -2 -67 -7 -154 -11 -180 -7 -443 -3 -443 7 0 4
-17 9 -37 11 -21 2 5 1 57 -2 52 -3 106 -5 120 -4z m605 -14 c19 3 35 2 35 -4
0 -5 -6 -9 -12 -10 -7 -1 -2 -4 12 -9 28 -8 -40 -7 -215 4 -69 5 -105 4 -97
-2 23 -16 -40 -22 -197 -20 l-146 2 160 6 160 6 -165 4 -165 3 205 8 c113 5
240 6 283 3 76 -6 77 -6 77 17 1 23 1 23 15 5 11 -14 22 -17 50 -13z m30 17
c-11 -5 -31 -8 -45 -8 -23 0 -22 1 5 8 42 11 65 11 40 0z m145 0 c0 -5 10 -11
23 -11 20 -2 20 -2 -3 -7 -23 -4 -24 -5 -5 -13 13 -6 6 -6 -20 -2 -22 3 -42 9
-45 12 -3 3 -11 6 -17 7 -41 3 -43 8 -8 14 61 11 75 11 75 0z m77 4 c-3 -3
-12 -4 -19 -1 -8 3 -5 6 6 6 11 1 17 -2 13 -5z m192 -10 c10 -9 -106 -3 -119
6 -10 8 5 9 50 4 36 -4 67 -8 69 -10z m44 9 c-7 -2 -19 -2 -25 0 -7 3 -2 5 12
5 14 0 19 -2 13 -5z m193 -1 c-18 -2 -25 -7 -17 -11 6 -4 -3 -8 -21 -8 -18 -1
-53 -4 -76 -8 -30 -4 -42 -3 -37 4 3 6 25 12 48 13 36 1 34 2 -18 8 -48 5 -40
6 45 6 58 -1 92 -2 76 -4z m119 -1 c16 -7 14 -9 -16 -15 -39 -7 -72 1 -63 15
6 11 51 11 79 0z m65 -45 c0 -6 -9 0 -20 14 -26 33 -25 52 0 21 11 -13 20 -28
20 -35z m837 22 c-3 -7 -5 -2 -5 12 0 14 2 19 5 13 2 -7 2 -19 0 -25z m33 20
c0 -7 3 -24 7 -37 4 -17 3 -22 -5 -17 -7 4 -14 -3 -18 -19 -8 -33 -21 -32 -21
1 0 17 2 22 8 13 10 -16 24 34 15 56 -3 8 -1 15 4 15 6 0 10 -6 10 -12z m27
-10 c-3 -8 -6 -5 -6 6 -1 11 2 17 5 13 3 -3 4 -12 1 -19z m-870 -19 c0 -24 -2
-27 -10 -14 -5 9 -6 23 -3 31 8 22 13 17 13 -17z m-532 12 c31 -7 34 -9 13
-10 -14 0 -35 -4 -45 -7 -15 -5 -15 -4 -3 5 12 8 5 11 -30 10 -34 0 -40 -2
-25 -9 14 -6 16 -9 4 -9 -8 -1 -24 6 -35 14 -17 13 -15 14 31 14 28 0 68 -4
90 -8z m6928 -40 c35 -26 76 -51 91 -55 25 -6 28 -26 5 -26 -6 0 -8 4 -5 9 4
5 -6 12 -21 16 -16 3 -42 18 -59 33 -18 15 -44 37 -60 50 -55 43 -14 22 49
-27z m-6795 32 c-16 -2 -40 -2 -55 0 -16 2 -3 4 27 4 30 0 43 -2 28 -4z m-395
-10 c-7 -2 -19 -2 -25 0 -7 3 -2 5 12 5 14 0 19 -2 13 -5z m-270 -10 c-13 -2
-35 -2 -50 0 -16 2 -5 4 22 4 28 0 40 -2 28 -4z m2594 -15 c-3 -8 -6 -5 -6 6
-1 11 2 17 5 13 3 -3 4 -12 1 -19z m-1602 -54 c-26 -24 -27 -30 -10 -79 3 -11
-1 -7 -10 8 -14 24 -15 34 -5 57 7 16 18 31 26 34 8 3 15 13 15 23 1 17 2 17
6 0 3 -11 -6 -28 -22 -43z m70 26 c-1 -11 -10 -27 -21 -35 -28 -21 -37 -18
-13 6 13 13 18 27 14 39 -5 14 -2 18 8 15 7 -3 13 -15 12 -25z m754 16 c9 -11
9 -19 -1 -35 -17 -28 -24 -26 -32 4 -10 41 10 59 33 31z m88 -28 c-7 -17 -19
-34 -27 -36 -12 -4 -12 -1 1 14 9 10 19 27 22 37 4 9 9 17 12 17 3 0 -1 -14
-8 -32z m699 -74 c-3 -46 -1 -82 3 -80 4 3 8 -8 8 -24 0 -16 -5 -31 -11 -33
-8 -3 -11 33 -12 114 -1 65 3 116 8 113 4 -3 6 -43 4 -90z m-6146 -124 c7
-107 12 -343 11 -525 -2 -412 17 -650 84 -1070 51 -318 180 -904 210 -950 11
-17 10 -26 -5 -55 -17 -33 -51 -141 -64 -202 l-6 -28 -192 0 -192 0 -86 35
c-47 19 -148 57 -225 86 -165 60 -277 115 -360 174 -83 59 -121 101 -107 117
10 13 30 76 388 1223 175 559 223 700 251 744 85 131 201 393 254 574 12 42
23 76 25 75 1 -2 7 -91 14 -198z m5647 122 c-2 -55 -5 -66 -15 -56 -9 9 -9 20
-2 39 5 14 10 40 10 56 0 16 2 29 5 29 3 0 4 -31 2 -68z m-1116 25 c-10 -9
-11 -8 -5 6 3 10 9 15 12 12 3 -3 0 -11 -7 -18z m6643 2 c-3 -5 0 -9 7 -9 7 0
10 -2 7 -5 -3 -3 -19 1 -37 8 -17 7 -29 16 -26 19 9 9 55 -4 49 -13z m1099
-42 c-3 -4 -16 4 -29 18 -33 35 -30 42 5 13 15 -13 26 -27 24 -31z m-6904 12
c-12 -12 -18 -27 -14 -36 3 -9 0 -20 -6 -24 -7 -4 -9 -14 -4 -25 7 -18 8 -18
16 1 7 16 8 13 4 -9 -7 -31 -35 -79 -35 -58 0 6 -7 12 -15 12 -23 0 -18 -19 8
-30 l22 -9 -22 -7 c-22 -6 -27 -15 -24 -42 1 -6 -3 -20 -9 -30 -8 -14 -9 -13
-5 8 4 17 0 32 -14 46 -24 26 -24 76 0 69 9 -3 28 -1 41 4 23 8 25 15 24 63
-1 42 2 57 19 70 28 25 39 22 14 -3z m5960 5 c9 -8 -65 -2 -84 6 -13 6 -2 7
30 3 28 -3 52 -7 54 -9z m-6843 -23 c-1 -17 -5 -26 -9 -21 -5 4 -6 17 -2 29 9
29 12 26 11 -8z m6934 25 c0 -2 -15 -6 -34 -8 -19 -2 -32 0 -30 4 5 8 64 12
64 4z m-6022 -38 c-7 -13 -11 -27 -10 -31 1 -5 -2 -6 -6 -3 -14 9 -1 56 15 56
11 0 12 -4 1 -22z m-884 -4 c3 -8 2 -12 -4 -9 -6 3 -10 10 -10 16 0 14 7 11
14 -7z m7791 6 c3 -6 -1 -7 -9 -4 -18 7 -21 14 -7 14 6 0 13 -4 16 -10z m50
-35 c11 -4 27 -7 35 -6 11 2 12 0 4 -8 -7 -8 -21 -6 -47 7 -21 10 -34 21 -30
25 3 4 9 4 12 -1 3 -5 15 -12 26 -17z m-7909 -22 c-10 -10 -19 5 -10 18 6 11
8 11 12 0 2 -7 1 -15 -2 -18z m1192 -1 c2 -7 -3 -12 -12 -12 -9 0 -16 7 -16
16 0 17 22 14 28 -4z m6807 -2 c13 -6 15 -9 5 -9 -8 0 -22 4 -30 9 -18 12 -2
12 25 0z m100 -20 c14 -7 8 -8 -20 -3 -22 3 -42 7 -44 9 -9 8 45 2 64 -6z
m-8101 -16 c8 -21 -9 -25 -21 -5 -9 14 -8 18 3 18 7 0 15 -6 18 -13z m1166 -9
c0 -14 -9 -34 -20 -45 -11 -11 -20 -26 -21 -32 0 -10 -2 -10 -6 -1 -2 7 5 29
17 48 12 19 19 35 15 35 -3 0 -3 5 0 10 10 16 15 12 15 -15z m7013 18 c-7 -2
-21 -2 -30 0 -10 3 -4 5 12 5 17 0 24 -2 18 -5z m-8101 -21 c-14 -4 -17 -72
-3 -72 5 0 12 8 15 18 4 13 4 13 3 -3 -1 -11 -9 -20 -17 -20 -11 0 -16 13 -18
47 -3 42 -1 47 14 41 11 -4 13 -8 6 -11z m-123 -32 c-13 -22 -25 -40 -29 -40
-3 0 -6 -8 -6 -17 -1 -10 -4 -30 -7 -45 -3 -17 0 -31 9 -39 16 -13 19 -45 4
-54 -6 -3 -10 4 -11 17 l0 23 -9 -22 c-14 -34 -20 -28 -17 17 1 22 5 40 9 40
3 0 5 14 3 30 -3 19 0 28 6 24 6 -3 9 0 8 7 -4 16 42 99 54 99 5 0 -2 -18 -14
-40z m1036 -435 c16 -150 62 -391 130 -685 36 -154 135 -666 135 -696 0 -11
-6 -13 -20 -9 -36 11 -38 -4 -14 -81 33 -102 37 -109 82 -127 31 -12 41 -22
46 -48 12 -60 6 -90 -23 -127 -72 -90 -125 -247 -137 -407 l-6 -80 101 -34
c56 -19 104 -38 107 -43 3 -4 -294 -8 -659 -8 -649 0 -670 1 -888 26 -123 14
-227 28 -230 32 -6 7 -41 168 -59 267 -5 33 -14 128 -20 210 -5 83 -15 203
-21 268 l-11 119 43 64 44 64 45 -6 45 -5 50 66 c55 71 65 95 41 95 -30 0 -28
4 108 185 166 222 269 347 662 800 146 168 296 385 380 549 l39 76 7 -158 c4
-86 15 -224 23 -307z m212 433 c-3 -7 -5 -2 -5 12 0 14 2 19 5 13 2 -7 2 -19
0 -25z m-1207 -8 c5 8 10 11 10 5 0 -5 -5 -17 -10 -25 -9 -13 -11 -13 -20 0
-6 10 -10 11 -10 3 0 -7 -5 -13 -10 -13 -6 0 -5 8 2 20 9 14 14 16 20 7 6 -9
10 -8 18 3z m1717 -2 c6 -7 11 -49 12 -93 2 -43 5 -83 7 -87 3 -4 0 -8 -5 -8
-11 0 -16 49 -13 125 1 33 0 36 -8 20 -9 -18 -10 -18 -6 4 3 14 0 31 -6 38 -6
8 -7 13 0 13 5 0 14 -6 19 -12z m-947 -67 c0 -30 -4 -40 -20 -44 -24 -6 -28
18 -5 27 8 3 15 17 15 31 0 14 2 25 5 25 3 0 5 -17 5 -39z m70 13 c0 -2 -7 -4
-15 -4 -8 0 -15 4 -15 10 0 5 7 7 15 4 8 -4 15 -8 15 -10z m276 -31 c-10 -10
-19 5 -10 18 6 11 8 11 12 0 2 -7 1 -15 -2 -18z m-290 -10 c-10 -10 -19 5 -10
18 6 11 8 11 12 0 2 -7 1 -15 -2 -18z m871 -20 c-3 -10 -5 -4 -5 12 0 17 2 24
5 18 2 -7 2 -21 0 -30z m-877 -3 c0 -5 -2 -10 -4 -10 -3 0 -8 5 -11 10 -3 6
-1 10 4 10 6 0 11 -4 11 -10z m274 -30 c-4 -26 -3 -40 4 -40 6 0 13 15 15 33
2 17 2 -11 -1 -63 -2 -52 -9 -99 -14 -105 -5 -6 -8 9 -7 40 1 28 -2 78 -6 113
-6 45 -5 62 4 62 8 0 9 -13 5 -40z m-1223 -22 c-9 -31 -9 -31 -10 -6 -1 30 11
67 16 51 2 -6 0 -26 -6 -45z m884 -13 c1 -45 -1 -51 -10 -35 -11 21 -8 90 4
90 3 0 6 -25 6 -55z m45 38 c0 -5 -7 -17 -15 -27 -8 -10 -12 -24 -8 -30 4 -8
3 -8 -6 0 -8 8 -9 18 -2 37 9 24 31 38 31 20z m-953 -60 c-3 -10 -5 -2 -5 17
0 19 2 27 5 18 2 -10 2 -26 0 -35z m-187 19 c0 -4 -79 -54 -175 -112 l-175
-105 0 -437 c0 -270 -4 -438 -10 -438 -5 0 -13 8 -19 18 -14 25 -24 9 -49 -78
-28 -94 -27 -99 3 -144 l25 -36 -32 -64 c-29 -59 -35 -65 -75 -76 -23 -7 -72
-30 -108 -51 l-65 -38 0 673 0 673 -175 104 c-96 56 -175 107 -175 111 0 4
232 8 515 8 283 0 515 -3 515 -8z m120 3 c0 -3 -20 -46 -45 -96 -48 -95 -168
-370 -305 -704 -46 -110 -87 -204 -92 -210 -4 -5 -7 161 -6 380 l3 390 204
123 c177 106 241 137 241 117z m1917 -52 c-3 -10 -5 -2 -5 17 0 19 2 27 5 18
2 -10 2 -26 0 -35z m-1865 -21 c-7 -2 -10 -7 -7 -11 7 -12 -15 -81 -26 -81 -6
0 -6 7 1 19 5 11 10 32 9 48 l-1 28 -9 -31 c-7 -25 -39 -68 -39 -53 0 16 48
98 53 92 4 -3 7 5 8 18 l0 24 12 -24 c9 -19 9 -25 -1 -29z m30 -31 c-5 -3 -12
-13 -15 -21 -3 -9 -6 -4 -6 12 -1 15 5 40 12 55 l12 28 3 -34 c2 -19 -1 -37
-6 -40z m1878 32 c0 -21 1 -69 3 -107 2 -38 0 -61 -4 -50 -4 10 -8 34 -8 52
-1 17 -6 32 -12 32 -6 0 -8 -8 -5 -17 2 -10 7 -45 10 -78 3 -44 2 -52 -4 -30
-6 21 -7 9 -4 -40 3 -38 7 -71 9 -73 1 -2 6 22 10 53 3 31 8 55 10 53 1 -1 5
-30 9 -63 3 -37 2 -52 -3 -40 -7 16 -10 10 -15 -30 -4 -27 -8 -57 -10 -65 -1
-8 -6 23 -11 70 l-10 85 -6 -55 c-5 -43 -6 -36 -5 37 1 51 4 93 9 93 4 0 7 19
6 43 0 32 -2 37 -9 22 -8 -18 -9 -17 -9 7 -1 14 5 28 11 30 8 3 12 22 12 49
-1 31 1 38 7 24 7 -17 8 -16 8 8 1 15 3 27 6 27 3 0 5 -17 5 -37z m-1009 -4
c-9 -22 -10 -22 -10 -3 -1 11 2 24 6 27 12 12 14 0 4 -24z m346 -1 c-3 -7 -5
-2 -5 12 0 14 2 19 5 13 2 -7 2 -19 0 -25z m48 -87 c-7 -70 -8 -74 -21 -51
-16 30 -15 36 -19 -87 -3 -80 -1 -103 10 -103 20 0 43 -120 30 -160 -17 -54
-51 24 -35 80 15 53 11 82 -5 40 l-13 -35 -2 30 c-4 63 0 328 5 333 3 3 5 -7
5 -21 0 -20 5 -27 20 -27 18 0 20 7 21 58 1 31 4 48 6 38 3 -11 2 -53 -2 -95z
m-430 59 c21 17 19 -2 -2 -26 -10 -10 -24 -31 -32 -46 -8 -16 -16 -26 -18 -24
-3 2 3 18 12 35 11 23 13 36 5 50 -15 28 -12 39 5 17 12 -16 17 -17 30 -6z
m1002 -2 c-3 -8 -6 -5 -6 6 -1 11 2 17 5 13 3 -3 4 -12 1 -19z m-1109 -72 c-7
-8 -15 -12 -17 -11 -5 6 10 25 20 25 5 0 4 -6 -3 -14z m27 -16 c-16 -16 -25
-33 -22 -37 4 -3 14 2 22 13 19 25 19 15 -1 -24 -8 -17 -26 -40 -40 -51 -13
-10 -24 -24 -24 -31 0 -6 -4 -9 -10 -5 -5 3 -7 12 -3 20 3 8 0 15 -7 15 -8 0
-10 -11 -5 -32 5 -27 4 -30 -5 -15 -6 9 -15 15 -21 12 -14 -9 2 28 25 55 21
25 56 36 56 18 0 -5 -9 -12 -20 -15 -11 -3 -20 -9 -20 -14 0 -15 16 -10 41 11
23 20 24 20 5 35 -19 14 -19 16 10 45 16 16 33 30 38 30 6 0 -3 -13 -19 -30z
m-867 -20 c-3 -23 -1 -30 9 -26 9 4 10 1 3 -12 -5 -9 -11 -29 -15 -44 -3 -16
-9 -28 -14 -28 -5 0 -4 14 2 30 9 23 9 35 -1 50 -7 12 -8 20 -2 20 5 0 10 9
10 20 0 11 3 20 6 20 4 0 4 -14 2 -30z m19 8 c-3 -8 -6 -5 -6 6 -1 11 2 17 5
13 3 -3 4 -12 1 -19z m742 -60 c-9 -16 -14 -19 -17 -9 -2 7 2 17 9 22 20 13
21 11 8 -13z m-798 -39 c-9 -23 -10 -23 -10 -2 -1 12 2 30 6 40 6 15 8 15 11
2 1 -8 -2 -26 -7 -40z m56 -11 c-3 -7 -5 -2 -5 12 0 14 2 19 5 13 2 -7 2 -19
0 -25z m1362 -18 c-1 -17 -3 -19 -6 -7 -8 32 -22 17 -17 -20 4 -37 4 -37 -7
-10 -8 21 -8 35 1 58 15 34 30 22 29 -21z m-1439 12 c0 -5 -7 -17 -16 -28 -8
-10 -14 -14 -11 -9 2 6 7 18 10 28 7 17 17 23 17 9z m781 -65 c18 -5 23 3 20
31 -1 6 3 12 9 12 20 0 9 -31 -24 -66 l-33 -35 -7 40 c-3 21 -3 48 2 58 6 15
7 14 10 -8 2 -17 11 -29 23 -32z m-701 8 c0 -19 -4 -35 -10 -35 -5 0 -10 -16
-10 -35 0 -35 15 -48 23 -20 4 11 4 10 3 -2 -2 -24 -30 -23 -34 1 -6 30 8 126
19 126 5 0 9 -16 9 -35z m-89 -3 c-6 -11 -6 -24 0 -33 5 -7 8 -21 8 -29 0 -12
-2 -12 -6 -1 -5 11 -7 11 -15 0 -6 -9 -7 -5 -2 12 3 15 1 30 -5 33 -6 4 -11
12 -11 17 0 6 4 8 9 4 5 -3 12 -1 16 5 11 18 16 11 6 -8z m1446 -34 c-3 -8 -6
-5 -6 6 -1 11 2 17 5 13 3 -3 4 -12 1 -19z m-1483 -24 c-5 -27 -4 -35 5 -30 6
4 11 2 11 -3 0 -14 -17 -14 -25 -1 -7 11 3 70 11 70 3 0 2 -16 -2 -36z m786
21 c0 -8 -4 -15 -10 -15 -5 0 -7 7 -4 15 4 8 8 15 10 15 2 0 4 -7 4 -15z
m1330 -16 c0 -5 -4 -9 -10 -9 -5 0 -10 7 -10 16 0 8 5 12 10 9 6 -3 10 -10 10
-16z m-50 -32 c0 -5 -4 -5 -10 -2 -5 3 -10 14 -10 23 0 15 2 15 10 2 5 -8 10
-19 10 -23z m-1289 0 c-10 -9 -11 -8 -5 6 3 10 9 15 12 12 3 -3 0 -11 -7 -18z
m1335 -34 c0 -21 1 -172 3 -337 2 -262 0 -300 -14 -316 -12 -14 -17 -44 -19
-131 -2 -63 -6 -143 -9 -179 -4 -36 -4 -57 -1 -47 6 18 7 18 20 -1 14 -21 9
-112 -6 -112 -11 0 -20 27 -20 61 0 16 -4 29 -8 29 -5 0 -2 46 5 103 7 56 12
111 10 122 -3 11 -5 4 -6 -15 -1 -25 -4 -31 -12 -23 -9 9 -9 20 0 44 14 40 14
96 1 101 -6 2 -6 17 2 41 8 26 17 37 31 37 19 0 19 9 17 323 -2 326 -2 337 3
337 2 0 3 -17 3 -37z m-1386 5 c0 -9 3 -9 12 0 20 20 32 13 14 -7 -11 -12 -25
-17 -34 -14 -12 5 -14 2 -9 -12 6 -15 5 -16 -8 -5 -17 14 -21 35 -5 25 6 -3
10 1 10 9 0 9 5 16 10 16 6 0 10 -5 10 -12z m1327 -50 c-2 -13 -4 -3 -4 22 0
25 2 35 4 23 2 -13 2 -33 0 -45z m33 25 c0 -20 -3 -24 -11 -16 -7 7 -9 19 -6
27 10 24 17 19 17 -11z m-2122 -28 c-3 -3 -9 2 -12 12 -6 14 -5 15 5 6 7 -7
10 -15 7 -18z m731 -21 c-6 -7 -17 -10 -25 -7 -10 4 -12 0 -8 -12 6 -14 3 -16
-17 -10 -18 5 -20 4 -9 -4 15 -11 11 -17 -53 -86 -16 -16 -43 -50 -60 -74 -18
-24 -46 -58 -62 -76 -17 -18 -36 -44 -44 -59 -9 -16 -17 -22 -22 -15 -5 8 -8
8 -13 0 -4 -6 -4 -15 -1 -21 3 -5 1 -10 -4 -10 -6 0 -11 11 -11 25 0 17 6 25
18 25 11 0 13 3 5 8 -6 4 -13 18 -16 32 -2 14 -2 19 0 13 3 -7 8 -13 13 -13 4
0 10 -10 14 -22 6 -22 7 -21 22 9 9 18 20 30 24 28 12 -8 40 36 40 62 0 16 6
23 20 23 23 0 26 10 8 29 -10 11 -10 14 0 18 6 3 12 10 12 17 0 22 36 47 55
40 26 -10 46 21 35 52 -6 15 -5 26 2 30 7 4 8 3 4 -4 -10 -17 10 -15 28 3 8 9
19 17 23 18 4 1 7 6 5 11 -2 5 4 4 13 -4 11 -9 12 -16 4 -26z m-737 -87 c-2
-20 -9 -37 -14 -37 -6 0 -8 14 -6 30 3 20 -1 35 -11 43 -12 10 -14 9 -8 -7 10
-26 -1 -56 -20 -56 -13 0 -13 3 -3 15 7 9 14 25 15 38 1 12 3 26 4 31 0 5 8 3
17 -5 14 -11 15 -9 10 27 l-6 39 13 -40 c7 -22 12 -57 9 -78z m1526 11 c0 -25
-3 -36 -8 -27 -7 12 -3 69 6 69 1 0 2 -19 2 -42z m-1571 -74 c-3 -3 -12 -4
-19 -1 -8 3 -5 6 6 6 11 1 17 -2 13 -5z m-28 -44 c0 -10 -3 -8 -9 5 -12 27
-12 43 0 25 5 -8 9 -22 9 -30z m588 -10 c-6 -16 -12 -28 -13 -27 0 1 -4 19 -7
40 -5 34 -4 36 13 27 16 -8 17 -14 7 -40z m1061 23 c6 -16 13 -46 17 -68 3
-22 8 -53 10 -70 4 -24 3 -26 -4 -10 -8 16 -10 11 -11 -25 -1 -39 -2 -42 -11
-21 -5 13 -7 33 -3 44 4 13 2 17 -5 13 -7 -5 -11 2 -12 16 -3 65 -8 91 -18
101 -6 6 -11 18 -11 26 0 36 30 -30 35 -75 2 -26 9 -52 15 -58 17 -17 12 34
-10 94 -23 63 -23 60 -11 60 5 0 13 -12 19 -27z m29 -30 c-3 -10 -5 -4 -5 12
0 17 2 24 5 18 2 -7 2 -21 0 -30z m-1697 6 c0 -7 -9 -27 -21 -46 -12 -18 -18
-40 -15 -48 3 -9 0 -12 -10 -8 -18 7 -18 12 6 51 11 18 20 39 20 47 0 8 5 15
10 15 6 0 10 -5 10 -11z m100 -19 c0 -5 -4 -10 -10 -10 -5 0 -10 5 -10 10 0 6
5 10 10 10 6 0 10 -4 10 -10z m-95 -34 c-15 -22 -15 -29 -4 -43 12 -14 12 -16
-1 -11 -8 2 -16 12 -18 21 -3 16 27 71 35 63 3 -2 -3 -16 -12 -30z m435 4 c0
-11 -4 -20 -10 -20 -5 0 -10 9 -10 20 0 11 5 20 10 20 6 0 10 -9 10 -20z m125
1 c-3 -6 -14 -11 -23 -11 -15 1 -15 2 2 15 21 16 32 13 21 -4z m-548 -33 c-3
-8 -6 -5 -6 6 -1 11 2 17 5 13 3 -3 4 -12 1 -19z m-85 -103 c-6 -30 -6 -30
-12 -5 -8 29 -1 55 11 43 4 -4 5 -21 1 -38z m1765 -7 c-3 -7 -5 -2 -5 12 0 14
2 19 5 13 2 -7 2 -19 0 -25z m-1214 -12 c-10 -13 -24 -21 -32 -18 -10 4 -13 1
-8 -12 5 -11 3 -15 -5 -10 -7 5 -9 2 -5 -9 7 -19 -18 -44 -28 -27 -4 6 -1 9 7
8 7 -2 12 4 10 11 -4 20 19 62 32 58 6 -2 17 2 24 10 22 21 24 15 5 -11z
m-563 -33 c0 -7 -4 -13 -10 -13 -5 0 -10 12 -10 28 0 21 2 24 10 12 5 -8 10
-21 10 -27z m-33 -5 c-3 -8 -6 -5 -6 6 -1 11 2 17 5 13 3 -3 4 -12 1 -19z m50
-15 c-3 -10 -5 -4 -5 12 0 17 2 24 5 18 2 -7 2 -21 0 -30z m1760 15 c-3 -8 -6
-5 -6 6 -1 11 2 17 5 13 3 -3 4 -12 1 -19z m-1802 -27 c-9 -8 -36 -10 -30 -2
2 4 11 8 20 8 8 0 13 -3 10 -6z m491 -15 c16 -13 17 -18 6 -33 -7 -10 -21 -31
-31 -46 -14 -22 -20 -25 -24 -13 -3 9 -3 18 2 20 4 3 7 20 6 38 -4 51 6 59 41
34z m-510 -69 c17 6 19 -13 2 -21 -9 -3 -8 -8 5 -16 9 -6 17 -15 17 -21 0 -5
-11 -2 -24 7 -17 10 -23 21 -19 32 6 14 4 15 -8 5 -13 -10 -16 -10 -16 2 0 8
4 12 9 9 4 -3 8 1 9 8 0 9 2 10 5 1 3 -7 12 -9 20 -6z m61 7 c-3 -3 -12 -4
-19 -1 -8 3 -5 6 6 6 11 1 17 -2 13 -5z m1813 -20 c7 -18 6 -33 -5 -55 -17
-33 -30 -39 -20 -10 3 11 1 22 -5 26 -5 3 -10 19 -10 36 0 37 27 39 40 3z
m-1847 -112 c59 -41 158 -90 255 -127 l83 -31 -42 -53 c-40 -50 -44 -52 -78
-46 -122 22 -280 107 -340 184 -51 64 -55 80 -36 145 l17 57 49 -50 c27 -28
69 -63 92 -79z m1897 52 c0 -56 -4 -80 -16 -91 -10 -11 -14 -26 -10 -44 3 -18
0 -29 -9 -33 -9 -3 -12 0 -9 8 3 8 1 17 -5 21 -6 3 -11 14 -11 23 0 15 2 15
11 2 9 -12 10 -11 6 5 -2 11 2 27 10 34 15 14 14 81 -1 126 -6 16 -3 21 13 22
20 2 21 -4 21 -73z m-1506 42 c-6 -16 -24 -23 -24 -8 0 10 22 33 27 28 2 -2 1
-11 -3 -20z m24 -31 c-6 -14 -15 -25 -19 -25 -5 0 -15 -12 -23 -27 l-15 -28 3
30 c2 17 4 35 5 40 1 6 5 3 11 -5 7 -11 11 -9 19 13 6 15 15 27 21 27 6 0 5
-9 -2 -25z m-338 -16 c0 -5 -7 -9 -15 -9 -8 0 -15 -5 -15 -11 0 -5 -5 -7 -12
-3 -9 6 -9 9 0 12 7 2 12 10 12 18 0 8 6 11 15 8 8 -4 15 -10 15 -15z m1786
-14 c-4 -42 -16 -60 -16 -22 0 24 9 57 15 57 2 0 2 -16 1 -35z m478 -86 c3
-52 1 -112 -3 -134 l-7 -40 -8 35 c-5 21 -5 35 2 38 6 2 8 41 5 105 -2 56 -2
99 1 96 3 -3 8 -48 10 -100z m-2229 61 l-7 25 17 -23 c25 -33 9 -44 -31 -20
-24 14 -32 23 -23 29 7 4 20 -1 31 -14 l19 -22 -6 25z m1722 -22 c-3 -7 -5 -2
-5 12 0 14 2 19 5 13 2 -7 2 -19 0 -25z m-1541 -20 c-5 8 0 12 15 12 22 0 22
0 4 -20 -10 -12 -25 -18 -32 -16 -7 3 -13 1 -13 -5 0 -25 31 -18 60 13 l32 33
-31 -42 c-20 -26 -38 -40 -49 -38 -9 2 -21 4 -27 4 -5 1 -3 6 5 12 11 8 8 9
-15 5 l-30 -6 28 15 c15 9 27 23 27 32 0 13 2 14 17 2 11 -10 14 -10 9 -1z
m-101 -8 c-3 -5 1 -10 9 -10 8 0 18 5 21 10 8 12 25 13 25 1 0 -12 -45 -22
-64 -15 -16 6 -12 24 5 24 6 0 7 -4 4 -10z m1765 -65 c0 -43 -4 -75 -10 -75
-6 0 -10 32 -10 75 0 43 4 75 10 75 6 0 10 -32 10 -75z m327 -57 c-2 -13 -4
-5 -4 17 -1 22 1 32 4 23 2 -10 2 -28 0 -40z m2346 32 c3 -13 0 -20 -9 -20 -8
0 -14 9 -14 20 0 11 4 20 9 20 5 0 11 -9 14 -20z m-2763 -47 c-10 -16 -11 -15
-6 7 3 14 6 32 7 40 1 8 4 5 6 -7 2 -12 -1 -30 -7 -40z m68 -108 c14 24 15 11
3 -33 -6 -20 -6 -32 0 -32 5 0 10 8 10 18 1 15 2 15 6 0 5 -21 41 -30 95 -24
36 4 38 4 13 -3 l-30 -9 36 -1 c19 0 40 4 46 10 6 6 28 9 49 7 31 -2 39 -7 39
-23 0 -17 -6 -20 -45 -17 -25 1 -40 -1 -33 -5 6 -5 -11 -8 -37 -8 -55 0 -56 5
-3 16 31 7 26 8 -22 4 -33 -2 -76 0 -95 5 l-35 8 30 2 c25 1 27 3 10 9 -11 5
-32 5 -47 0 -23 -6 -28 -5 -28 11 0 10 -3 27 -6 37 -5 12 -4 15 4 8 5 -5 13
-19 16 -30 3 -11 3 0 1 25 -3 28 -1 38 4 25 8 -19 8 -19 19 0z m352 -54 c0
-11 -9 -21 -21 -24 -12 -3 -18 -10 -14 -16 3 -6 -1 -11 -9 -11 -21 0 -9 28 15
35 10 4 19 13 19 21 0 8 2 14 5 14 3 0 5 -8 5 -19z m-315 -61 l40 -10 -44 6
c-51 6 -64 11 -55 26 4 7 9 7 13 -1 4 -6 25 -15 46 -21z m412 -57 c-4 -37 -12
-70 -19 -74 -7 -4 -44 -18 -83 -31 -99 -32 -274 -32 -356 0 -53 21 -56 25 -72
75 -22 70 -22 70 11 62 108 -27 290 -21 433 15 41 10 78 18 83 19 5 1 6 -28 3
-66z m-2353 0 c-5 -5 -12 -12 -16 -18 -4 -6 -8 -2 -8 8 0 9 7 17 17 17 9 0 12
-3 7 -7z m13 -75 c1 -61 0 -60 -17 7 -5 20 0 55 8 55 4 0 8 -28 9 -62z m12
-108 c4 0 6 -15 4 -32 -3 -25 -2 -30 6 -18 9 12 11 10 12 -10 1 -14 3 -65 5
-114 2 -58 8 -92 16 -98 10 -6 9 -8 -3 -8 -14 0 -19 16 -25 83 -5 45 -6 84 -1
85 4 2 7 8 7 13 0 6 -4 8 -9 5 -8 -5 -16 27 -25 94 -2 14 -1 19 1 13 3 -7 8
-13 12 -13z m2368 -257 c12 -13 18 -23 13 -23 -6 0 -10 -5 -10 -11 0 -6 7 -9
15 -6 8 4 17 1 21 -5 5 -7 2 -8 -6 -3 -8 5 -11 3 -8 -6 3 -8 11 -13 17 -12 6
2 10 0 10 -5 -3 -19 2 -33 11 -27 6 3 10 -1 10 -10 0 -9 4 -14 9 -10 5 3 13 0
17 -6 5 -8 3 -9 -6 -4 -9 6 -10 2 -5 -16 5 -15 -4 -8 -25 21 -18 25 -44 57
-57 72 -14 14 -22 31 -19 37 4 6 3 11 -3 11 -5 0 -13 9 -16 21 -4 12 -13 18
-20 15 -9 -3 -12 0 -8 10 3 9 0 14 -8 12 -7 -2 -13 4 -14 12 0 8 -4 15 -10 15
-15 1 -52 24 -38 25 7 0 10 7 7 18 -4 9 18 -10 47 -43 30 -33 64 -70 76 -82z
m-2753 90 c3 -16 17 -95 32 -178 25 -148 26 -151 79 -230 67 -100 186 -230
244 -267 109 -68 208 3 187 135 l-7 39 68 -7 c330 -34 668 -77 696 -89 19 -7
47 -31 63 -52 26 -33 29 -46 29 -108 l0 -71 -1334 -3 -1333 -2 4 73 c3 62 8
80 31 110 15 21 41 44 57 52 18 9 206 34 521 70 272 30 509 57 527 60 l32 6 0
229 0 228 43 15 c56 20 55 21 61 -10z m2871 -242 c3 -5 1 -12 -5 -16 -5 -3
-10 1 -10 9 0 18 6 21 15 7z m5142 -43 c42 -45 76 -102 102 -173 27 -73 54
-206 44 -215 -9 -8 -366 -37 -545 -44 -161 -7 -512 9 -658 29 -132 19 -277 55
-352 88 -58 26 -118 72 -118 91 0 7 15 28 33 48 46 50 97 63 193 47 41 -6 103
-9 137 -6 69 7 243 64 382 125 l90 40 331 1 330 1 31 -32z m-5132 12 c-8 -13
23 -63 34 -56 4 3 8 -1 8 -9 0 -25 -14 -17 -37 20 -19 30 -20 55 -4 55 3 0 2
-5 -1 -10z m29 -26 c3 -8 2 -12 -4 -9 -6 3 -10 10 -10 16 0 14 7 11 14 -7z
m6417 -31 c57 -58 119 -201 134 -309 l6 -50 -178 -17 c-113 -11 -271 -17 -434
-17 -266 0 -398 9 -556 36 l-92 16 -6 36 c-3 21 -13 65 -21 99 -7 34 -14 66
-14 70 0 4 27 6 59 5 72 -4 167 20 323 84 62 25 127 51 143 57 22 8 120 11
325 10 267 -2 296 -4 311 -20z m-4209 -149 c2 -21 0 -38 -7 -40 -6 -3 -83 -3
-170 -2 l-160 3 4 30 c1 17 5 33 8 38 2 4 75 7 162 7 l159 0 4 -36z m-2562
-36 c0 -4 -22 -8 -50 -8 -56 0 -62 11 -28 47 l22 23 28 -27 c15 -15 28 -30 28
-35z m4008 -97 c114 -57 301 -100 532 -121 241 -21 810 -8 1048 24 31 5 33 3
30 -21 -6 -52 -36 -61 -237 -73 -102 -5 -276 -10 -387 -10 -665 0 -1084 95
-1084 246 l0 28 20 -22 c12 -12 47 -35 78 -51z m1736 -106 c209 -38 667 -47
961 -20 210 19 215 19 215 -3 0 -43 -27 -51 -225 -63 -314 -19 -729 -4 -997
36 -44 7 -47 9 -45 36 1 16 4 29 6 29 3 0 41 -7 85 -15z"/>
<path d="M8811 16584 c-36 -46 -23 -94 30 -113 44 -15 2983 -16 3026 -1 28 10
53 45 53 74 0 7 -9 25 -21 40 l-20 26 -1524 0 -1524 0 -20 -26z"/>
<path d="M8385 16198 c-50 -27 -60 -80 -22 -116 l23 -22 1971 0 1972 0 20 26
c34 43 24 86 -26 112 -30 17 -3908 17 -3938 0z"/>
<path d="M10707 10378 c-28 -21 -32 -79 -7 -105 l21 -23 1219 0 c1094 0 1220
2 1234 16 27 27 31 63 9 92 l-20 27 -1220 3 c-966 2 -1223 -1 -1236 -10z"/>
<path d="M10725 9918 c-49 -26 -58 -69 -24 -112 l20 -26 1049 0 1049 0 20 26
c12 15 21 33 21 40 0 26 -23 62 -47 73 -34 15 -2059 15 -2088 -1z"/>
<path d="M10270 9080 c-251 -35 -458 -206 -536 -443 -24 -70 -28 -99 -28 -202
0 -136 13 -194 71 -309 48 -95 181 -228 273 -274 195 -96 415 -95 611 4 109
54 223 171 277 284 115 240 87 495 -76 702 -134 171 -377 269 -592 238z m226
-40 c156 -35 320 -158 402 -301 190 -335 26 -767 -340 -896 -97 -35 -253 -43
-348 -18 -216 55 -377 205 -451 420 -20 59 -24 88 -24 190 1 104 5 130 27 193
112 311 418 483 734 412z"/>
<path d="M12131 9075 c-165 -36 -333 -156 -419 -298 -60 -99 -85 -188 -90
-317 -5 -141 11 -220 68 -329 213 -409 766 -480 1075 -138 63 69 126 189 150
282 19 76 19 234 0 310 -75 298 -342 507 -645 504 -41 0 -104 -7 -139 -14z
m320 -48 c210 -68 369 -234 423 -444 20 -77 21 -230 1 -303 -48 -181 -184
-339 -360 -418 -171 -77 -411 -58 -571 46 -126 82 -231 228 -269 373 -24 89
-16 269 15 356 66 189 236 342 440 398 67 18 252 14 321 -8z"/>
<path d="M7195 14053 c-49 -8 -94 -18 -99 -23 -9 -9 12 -160 25 -181 5 -8 35
-6 113 7 59 10 112 21 118 25 8 5 8 28 0 89 -7 45 -14 86 -17 91 -8 12 -29 10
-140 -8z"/>
<path d="M8096 13979 c2 -4 -3 -9 -11 -13 -26 -9 -55 -69 -55 -111 0 -76 59
-135 135 -135 76 0 135 59 135 135 0 52 -17 84 -60 113 -28 19 -45 22 -91 20
-32 -1 -55 -6 -53 -9z m117 -30 c13 -6 31 -23 40 -39 62 -105 -65 -212 -155
-131 -28 25 -33 36 -33 76 0 40 5 51 33 76 34 31 73 37 115 18z"/>
<path d="M7800 13785 c-5 -13 -82 -193 -170 -398 -88 -205 -160 -378 -160
-385 0 -7 6 -12 13 -12 14 0 294 48 857 149 103 18 361 63 448 78 19 3 32 12
32 20 0 8 -40 56 -88 106 -49 51 -151 158 -227 240 -76 81 -143 147 -150 147
-7 0 -41 -66 -75 -147 -35 -82 -66 -152 -70 -156 -6 -7 -149 139 -325 331 -53
58 -71 64 -85 27z m136 -131 c54 -58 134 -143 176 -187 90 -95 89 -81 20 -236
l-47 -105 -270 -48 c-148 -26 -277 -48 -286 -48 -13 0 19 84 140 365 86 201
159 365 162 365 3 0 50 -48 105 -106z m633 -186 c160 -170 196 -214 183 -220
-9 -4 -147 -30 -307 -58 -159 -28 -296 -53 -304 -55 -9 -4 -12 1 -9 13 10 38
223 531 230 532 4 0 97 -96 207 -212z"/>
<path d="M4793 13628 c-43 -11 -93 -73 -93 -115 0 -26 4 -33 19 -33 13 0 21 9
26 29 9 44 48 81 85 81 23 0 30 5 30 19 0 23 -25 30 -67 19z"/>
<path d="M4836 13498 c-7 -29 23 -92 47 -96 20 -4 23 30 6 75 -17 45 -43 56
-53 21z"/>
<path d="M15200 13395 c0 -10 10 -15 32 -15 23 0 40 -10 69 -40 21 -22 41 -36
44 -31 10 17 -18 61 -50 81 -39 24 -95 27 -95 5z"/>
<path d="M15190 13274 c-11 -27 -4 -70 12 -80 29 -18 53 67 26 94 -18 18 -27
15 -38 -14z"/>
<path d="M15356 12832 c-18 -55 -76 -76 -155 -57 -48 12 -37 -16 13 -33 65
-21 130 8 164 74 11 21 7 34 -9 34 -4 0 -10 -8 -13 -18z"/>
<path d="M11365 12438 c-9 -30 -132 -814 -128 -820 2 -5 35 -8 72 -8 l69 0 12
80 12 80 59 0 c65 0 57 11 77 -110 l7 -45 78 -3 c52 -2 77 1 77 8 0 11 -35
231 -107 668 l-26 162 -99 0 c-70 0 -100 -4 -103 -12z m178 -30 c3 -13 31
-180 61 -373 31 -192 59 -360 61 -372 5 -21 2 -23 -44 -23 -55 0 -54 -2 -66
103 l-7 58 -86 -3 -86 -3 -11 -72 c-6 -40 -14 -75 -17 -78 -3 -4 -23 -5 -45
-3 l-39 3 53 325 c29 179 57 355 64 393 l11 67 73 0 c67 0 73 -2 78 -22z"/>
<path d="M11445 12288 c-5 -26 -55 -381 -55 -398 0 -6 28 -10 70 -10 70 0 70
0 69 28 -2 74 -55 396 -66 399 -7 3 -15 -6 -18 -19z m54 -360 c1 -14 -7 -18
-40 -18 -39 0 -40 1 -35 28 3 15 10 63 16 107 18 138 22 139 41 15 10 -63 18
-123 18 -132z"/>
<path d="M12487 11188 c-9 -7 -19 -27 -23 -44 -5 -26 -1 -35 21 -53 15 -11 34
-21 42 -21 19 0 63 45 63 65 0 22 -45 65 -68 65 -10 0 -26 -6 -35 -12z m67
-40 c8 -14 7 -21 -6 -34 -30 -30 -75 9 -48 42 16 18 39 15 54 -8z"/>
<path d="M13841 11061 c-17 -17 -20 -32 -19 -88 0 -38 -2 -87 -6 -110 -5 -29
-4 -43 3 -43 20 0 33 53 33 130 1 73 11 106 29 94 5 -3 25 -36 44 -74 37 -74
74 -110 112 -110 29 0 26 23 -3 29 -31 5 -44 21 -85 103 -22 43 -43 78 -48 78
-5 0 -16 3 -24 6 -9 3 -25 -4 -36 -15z"/>
<path d="M15006 9619 c-83 -20 -125 -80 -112 -161 14 -87 62 -130 181 -163 93
-26 390 -31 600 -11 357 34 835 116 835 143 0 11 -8 14 -27 10 -248 -44 -551
-91 -695 -108 -214 -26 -564 -31 -663 -11 -84 17 -162 57 -180 92 -19 37 -19
110 0 137 31 44 130 58 305 43 319 -26 510 -25 510 5 0 10 -36 13 -162 13 -90
0 -215 5 -278 11 -135 13 -259 13 -314 0z"/>
<path d="M11450 11412 c0 -17 31 -24 133 -29 84 -5 97 -4 97 10 0 12 -9 16
-37 15 -21 -1 -73 2 -115 6 -50 5 -78 4 -78 -2z"/>
<path d="M17063 9939 c-68 -9 -83 -15 -83 -34 0 -12 6 -14 28 -8 15 5 80 8
145 7 112 -1 143 6 95 22 -42 13 -133 19 -185 13z"/>
<path d="M7763 10685 c-38 -16 -71 -61 -55 -77 7 -7 15 -3 27 15 22 35 65 50
114 42 47 -8 57 9 15 25 -34 13 -63 12 -101 -5z"/>
<path d="M7841 10547 c-13 -13 -14 -56 -2 -75 12 -19 45 -11 49 11 9 47 -22
89 -47 64z"/>
<path d="M7990 10179 c-45 -34 -86 -42 -122 -25 -39 20 -60 6 -27 -18 35 -24
95 -20 146 9 23 14 43 30 43 35 0 18 -16 18 -40 -1z"/>
<path d="M5124 9131 c-83 -51 -79 -184 7 -228 39 -20 112 -16 143 8 104 82 51
239 -81 239 -21 0 -52 -9 -69 -19z m154 -46 c46 -54 19 -141 -52 -165 -64 -21
-136 33 -136 102 0 13 9 37 20 55 34 57 121 61 168 8z"/>
<path d="M8000 7124 c0 -4 10 -28 22 -53 12 -25 24 -69 26 -98 3 -39 9 -53 20
-53 23 0 10 108 -20 161 -21 38 -48 62 -48 43z"/>
<path d="M8363 6763 c9 -2 23 -2 30 0 6 3 -1 5 -18 5 -16 0 -22 -2 -12 -5z"/>
<path d="M7693 6753 c9 -2 23 -2 30 0 6 3 -1 5 -18 5 -16 0 -22 -2 -12 -5z"/>
<path d="M9018 6683 c7 -3 16 -2 19 1 4 3 -2 6 -13 5 -11 0 -14 -3 -6 -6z"/>
<path d="M9068 6673 c6 -2 18 -2 25 0 6 3 1 5 -13 5 -14 0 -19 -2 -12 -5z"/>
<path d="M10090 6640 c0 -5 5 -10 11 -10 5 0 7 5 4 10 -3 6 -8 10 -11 10 -2 0
-4 -4 -4 -10z"/>
<path d="M9650 6540 c0 -5 5 -10 10 -10 6 0 10 5 10 10 0 6 -4 10 -10 10 -5 0
-10 -4 -10 -10z"/>
<path d="M6825 5980 c27 -12 35 -12 35 0 0 6 -12 10 -27 9 -25 0 -26 -1 -8 -9z"/>
<path d="M6876 5971 c-4 -5 3 -7 14 -4 23 6 26 13 6 13 -8 0 -17 -4 -20 -9z"/>
<path d="M7773 5953 c9 -2 23 -2 30 0 6 3 -1 5 -18 5 -16 0 -22 -2 -12 -5z"/>
<path d="M7980 5980 c0 -5 5 -10 11 -10 5 0 7 5 4 10 -3 6 -8 10 -11 10 -2 0
-4 -4 -4 -10z"/>
<path d="M8568 5983 c6 -2 18 -2 25 0 6 3 1 5 -13 5 -14 0 -19 -2 -12 -5z"/>
<path d="M9440 5906 c0 -8 5 -18 10 -21 6 -3 10 3 10 14 0 12 -4 21 -10 21 -5
0 -10 -6 -10 -14z"/>
<path d="M9380 5630 c0 -5 7 -10 15 -10 8 0 15 5 15 10 0 6 -7 10 -15 10 -8 0
-15 -4 -15 -10z"/>
<path d="M9653 4932 c1 -27 6 -48 10 -45 9 5 4 79 -6 89 -3 4 -5 -16 -4 -44z"/>
<path d="M10270 3878 c0 -49 5 -47 13 5 3 20 2 37 -4 37 -5 0 -9 -19 -9 -42z"/>
<path d="M8736 4755 c-23 -29 -24 -35 -9 -27 27 15 46 39 41 53 -2 6 -17 -5
-32 -26z"/>
<path d="M8410 4381 c0 -5 6 -12 13 -15 10 -5 10 -7 0 -12 -15 -7 -17 -24 -4
-24 13 0 21 27 15 45 -7 16 -24 21 -24 6z"/>
<path d="M9781 4308 c0 -7 4 -22 9 -33 8 -18 9 -17 9 7 1 15 -3 30 -9 33 -5 3
-10 0 -9 -7z"/>
<path d="M10080 3821 c0 -10 69 -25 78 -17 3 3 -6 6 -19 7 l-24 1 25 8 c21 7
19 8 -17 9 -24 1 -43 -3 -43 -8z"/>
<path d="M9963 3813 c9 -2 23 -2 30 0 6 3 -1 5 -18 5 -16 0 -22 -2 -12 -5z"/>
<path d="M3112 16733 c3 -17 660 -403 686 -403 48 0 -29 53 -328 226 -184 107
-341 194 -348 194 -8 0 -12 -8 -10 -17z"/>
<path d="M4340 16555 c-85 -16 -213 -76 -280 -131 -103 -86 -181 -208 -214
-339 -31 -117 -16 -295 33 -407 53 -119 136 -196 364 -338 186 -116 200 -131
259 -272 17 -40 34 -77 39 -83 5 -5 9 -17 9 -27 0 -27 57 -85 96 -98 20 -7 48
-10 64 -8 24 4 31 0 40 -23 39 -93 167 -106 240 -23 32 37 41 95 20 134 -8 15
-6 22 11 34 70 49 75 117 20 266 -21 58 -44 130 -51 160 -13 60 -12 66 59 336
53 203 51 329 -9 462 -50 110 -123 193 -229 263 -135 89 -311 125 -471 94z
m245 -40 c218 -46 412 -235 456 -442 17 -84 6 -197 -36 -358 -67 -254 -67
-253 -54 -314 6 -31 22 -87 36 -124 13 -38 23 -70 21 -72 -6 -6 -432 -175
-441 -175 -4 0 -12 12 -18 28 -25 67 -83 170 -112 197 -18 17 -68 53 -112 80
-185 113 -252 160 -310 219 -99 99 -149 227 -148 381 2 378 348 658 718 580z
m461 -1400 c8 -20 -13 -79 -35 -99 -27 -24 -280 -126 -314 -126 -35 0 -83 24
-96 49 -9 16 11 26 202 104 117 47 218 86 225 86 7 1 15 -6 18 -14z m-66 -231
c0 -55 -47 -94 -115 -94 -32 0 -85 34 -72 46 6 6 168 72 180 73 4 1 7 -11 7
-25z"/>
<path d="M5915 16365 c-41 -12 -62 -45 -29 -45 38 0 95 24 92 38 -4 21 -16 22
-63 7z"/>
<path d="M5493 16253 c-246 -66 -283 -79 -283 -95 0 -24 -24 -29 325 65 197
53 270 76 270 87 0 8 -7 16 -15 17 -8 1 -142 -32 -297 -74z"/>
<path d="M3650 15758 c-44 -12 -58 -24 -43 -39 16 -16 123 16 123 36 0 17 -28
18 -80 3z"/>
<path d="M3390 15689 c-58 -16 -175 -48 -260 -70 -153 -40 -201 -61 -168 -74
9 -4 139 27 290 67 202 54 273 77 273 88 0 23 -22 21 -135 -11z"/>
<path d="M5137 15583 c-17 -16 -3 -33 49 -63 55 -31 89 -34 79 -8 -7 17 -120
80 -128 71z"/>
<path d="M5322 15455 c4 -18 486 -297 499 -289 5 3 9 11 9 17 -1 14 -471 287
-495 287 -9 0 -15 -6 -13 -15z"/>
<path d="M4062 15288 c-27 -35 -382 -659 -382 -673 0 -49 49 22 224 325 173
300 202 360 176 360 -4 0 -12 -6 -18 -12z"/>
</g>
</svg>
